<?xml version="1.0" encoding="utf-8"?>
<!-- Generator: Adobe Illustrator 18.1.1, SVG Export Plug-In . SVG Version: 6.00 Build 0)  -->
<svg xmlns="http://www.w3.org/2000/svg" xmlns:xlink="http://www.w3.org/1999/xlink" viewBox="0 0 1480 800">
	<g class="character_rockfish">
		<g class="fin_right">
			<path class="st0" d="M648.6,468.1c2.9,4,8,5.7,10.6,9.4c4.9,7-2.6,4.6-4.9,7.8c-3.3,4.5,4.5,4.3,6.7,4.1c3.9-0.2,12-3.5,10,2.8
				c-1.3,4-5.1,2.3-7.4,5c-2.9,3.3,0.5,4.5,3.6,4.2c4.9-0.6,10.5-3.3,15.2-4.9c4.5-1.5,9-3.3,13-6c8.1-5.6,11.9-14.7,17.2-22.6
				c2.3-3.5,4.6-6,8-8.3c3.8-2.5,4.2-3.2,0.4-5.2c0.2,0.1-1.8-0.2-2.1-0.4c-0.7-0.4-1.5-1.5-2.1-2.1c-2.2-2.1-4.3-4.3-6.5-6.4
				c-1.2-1.2-2.1-2.4-2.6-3.5c-0.6-1.1,0.8-2.4-1.2-3.4c-2.4-1.2-3,1.1-3.9,2.8c0.2-1.8,1.3-7-1.7-7.5c-2.9-0.5-2.3,2-3,3.6
				c-1.3,3.3-3.8,5.7-6.4,8.6c-4,4.5-3.9,4-10.5,3.5c-3.9-0.3-19.4,0-11,7.3c-4.1,3.5-7.9,4.9-13.1,5.7
				C655,462.9,645.7,464.3,648.6,468.1C651.2,471.7,647.8,467,648.6,468.1z M678.7,485.2c3.4-1.8,6.5-4.2,9.9-6
				c-2.5,5.6-7.5,9.7-12.4,13.1C676.4,490.5,673.9,487.7,678.7,485.2z M664.2,476.9c1.4-0.1,2.9-0.4,4.2-0.8c-1.2,1-2.4,2-3.5,3.1
				C664.7,478.4,664.4,477.7,664.2,476.9z"/>
			<path class="st1" d="M707.8,441.3c-3,7.3-8.2,11.6-16.2,11.8c-6.3,0.1-12.8-2-19-0.2c0.3,2.3,2,4,4.4,3.4c-3,3.3-7.4,6.6-11.6,8.1
				c-3.9,1.4-9,0.5-12.5,3c9.8,13.7,20.5,3.9,32.8,1c-3.8,4.4-9.5,6.8-14,10.4c-3.9,3.2-8.1,8.4-13.5,8.9c6.4,0,13-0.5,19-2.9
				c6-2.4,10.9-7.4,17.2-9.1c-1.2,11.1-16.3,24.2-27.5,24.2c12.7-4.3,28.7-5.9,36.8-18.1c4.9-7.3,6.8-25,17-27.1
				C716.4,450.1,712.1,445.7,707.8,441.3z"/>
			<path class="st2" d="M652,466.5c0.6,0.9,1.3,1.8,2.1,2.6c2.2,2.4,6.1,3.4,7.9,5.5c2.5,2.8-1.9,7.3,0.7,8.6c-1.5,1-5.1,1.2-4.8,3.2
				c0.3,1.8,1.6,1.2,3.5,1.1c3.3-0.1,6.5-0.7,9.8-0.9c3.1-0.2,3-1.7,3.6,1.8c0.5,3-2.2,4.4-3.4,5.2c-1.1,0.8-5.3,5.2-7.1,5.1
				c0.9,5.7,18.2-1.1,21.7-2.3c6.8-2.4,13.3-6,18-11.5c6.9-8,9.5-23.1,19.7-27.9c-3.6,1.7-6.3,2.8-9.2,6.2
				c-4.1,4.9-6.8,10.7-10.5,15.9c-7.3,10.5-19.1,14.5-31.1,17.1c4.7-2,9.2-5.1,12.8-8.7c2.7-2.6,6.7-11.5,6.7-11.5
				s-10.7,5.2-13.7,6.6c-5.7,2.6-12,3.3-18.2,3.3c6.7-2.4,12.3-8.8,18.4-12.5c4.3-2.6,7.7-5.5,11.1-9.2c-5,1-9.7,2.2-14.5,4
				c-6.2,2.3-12.6,4.7-17.8-0.7c5-0.7,8.7-1.2,13.1-3.7c3.2-1.9,6-4.1,8.6-6.8c1.3-1.4,1.9-2.9,3.8-2.8c-5,3.9,8.4,1.2,10,0.7
				c3.5-1,7.3-2.7,9.9-5.3c0.7-0.7,6.6-9.3,4.1-10c-0.7,1.6-1.5,3.1-2.4,4.6c1.1-2.5,1.4-9.1-2.8-9c-0.3,4-0.6,9.5-2.9,12.9
				c-2.9,4.3-14.2,2.6-14.2,2.6s-8-1-12.5,0.1c0.2,0,1-0.4,1.1-0.3c-3.6,0.2-0.3,4.5,1.8,4.7c0,0-0.9-0.1-0.9-0.1
				c1.7,0.7-2,2.6-3,3.3c-2,1.4-4.2,2.9-6.4,3.7c-4.1,1.5-9.1,0.6-12.8,3.1c0-0.1,0.8-0.5,0.9-0.6c-0.1,0-0.9,0.6-0.9,0.5
				C652.1,465.8,652.1,466.1,652,466.5z M676.8,455.4C676.8,455.4,676.8,455.4,676.8,455.4C676.9,455.5,676.9,455.5,676.8,455.4z
				 M676.8,455.4C676.8,455.4,676.8,455.4,676.8,455.4C676.8,455.4,676.8,455.4,676.8,455.4z M676.8,455.4
				C676.8,455.4,676.8,455.4,676.8,455.4C676.8,455.4,676.8,455.4,676.8,455.4z M681.7,488.5c-2.1,1.6-4.3,3-6.6,4.1
				c1.2-1.6,6.3-6,2.4-7.7c4.8-1.8,8.9-5,13.5-7.2C689,482.1,685.4,485.6,681.7,488.5C679.6,490.1,684.2,486.6,681.7,488.5z
				 M666.7,498c0.1,0,0.2,0,0.3,0C666.8,498.1,666.7,498.2,666.7,498z M685.7,468C685.7,467.9,685.7,468,685.7,468
				C685.7,467.9,685.7,468,685.7,468z M685.6,467.8c-0.1-0.2-0.2-0.3-0.4-0.6C686,468.6,685.7,468,685.6,467.8z M685.7,468L685.7,468
				C685.7,468,685.7,468,685.7,468z M665,481.5c-1.7-2.6,0.1-6,2.1-7.1c3.6-2.1,10.1-3.5,14.2-5C675.5,473.4,670.5,477,665,481.5
				C664.9,481.3,666,480.7,665,481.5z M652.1,466.4c0.1-0.3,0.1-0.7,0.2-1C652.2,465.8,652.1,466.1,652.1,466.4z"/>
		</g>
		<g class="fin_left">
			<path class="st0" d="M802.6,509.6c6.9-3,11.6,1,8.9,8.5c-1.1,3-2.1,7,2.7,5.1c2.9-1.2,6.5-6.6,8.9-8.8c3.1-2.9,5.2-7,7.9-10.4
				c2.3-3,1.9-2.5,5.4-3.4c1.5-0.4,4.2-0.3,4.4-2.6c0.2-2-2.3-3.1-3.1-4.7c-0.9-1.8-0.9-4.3-1.8-6.2c-1.8-3.8-5-6.7-7.1-10.3
				c-1.6-2.8-1.4-8.1-3.2-10.3c-2.9-3.5-3.2,0.3-5,1.3c-1,0.5-4.9,1.1-5.9,0.9c-1.7-0.2-2.3-1.5-4.5-1.8c-7-0.7-5.3,14.3-6.1,18.9
				c-0.8,5-2,9.9-3.2,14.8C800.3,502.2,796.7,512.1,802.6,509.6C803.6,509.1,800.8,510.3,802.6,509.6z"/>
			<path class="st3" d="M804,508.8c5.4-2.3,10.4-5.5,13.3-10.7c1.1,5.4,0.3,11.8-1.2,17.1c-0.8,2.9-4.9,9.9,0.3,6.1
				c6-4.3,12.1-15.3,9.9-22.5c3.1,0.2,6.1,0.8,9.1,0.8c1.1,0,4.8,0.3,5.4-0.7c1.2-1.9-1.9-3.1-2.6-4.7c-0.8-1.7-0.8-4.3-1.7-6.2
				c-1.2-2.4-2.9-4.5-4.4-6.7c-1.7-2.4-3.4-5-4.4-7.8c-0.5-1.6-0.7-5.5-1.7-6.6c-2.6-2.9-9-0.9-12.9-0.4c-1,0.1-3.5-0.3-3.6,1.1
				c0.7,1,1.5,1.9,2.5,2.6c-0.1,1.7-0.2,3.5-0.5,5.2c-0.9,6.8-3,13.4-5.2,19.8c0-7.2-0.2-14.3-1.2-21.4c0-0.4-0.6-8-2.5-5.8
				c-1.2,1.4,0.4,5.7,0.6,7.4c0.8,6.5,0.9,13,1,19.5c0,3,0,5.3-0.6,8.1C803.8,503.6,801,510.1,804,508.8
				C809.8,506.4,803.3,509.2,804,508.8z"/>
			<path class="st2" d="M802.7,506.4c0,0,0.2-0.6,0.2-0.6c0.4,1.3-1.2-0.2,0.8,1.6c2.4,2.1,12.5-8.9,13.4-10.6
				c1.7,9.4-1.8,18-5.2,26.4c8-3.7,16.9-14.1,16.3-23.5c6.4,1.1,11.3,1,17.5-0.6c-4-5.9-8.4-10.9-12.2-16.9c-0.7-1.1-6-16.4-7.5-12.6
				c0-0.9,0-1.7,0.1-2.6c0,2.5-2.3,5.1-2.1,8.2c0.3,4.1,2.5,7.5,5.1,10.5c3.6,4.1,8.2,7.1,11.4,11.5c-2.5,0.9-5.1,0.8-7.7,0.6
				c-3.1-0.3-9-3.2-7.1,1.5s-9.3,19.4-11.2,21.1c6-9.5,6.1-21.2,3.3-31.7c-2.6,5.2-5.2,8.5-9.4,12.6c1-2.6,10.6-33.3,4.2-32.8
				c-0.4,10-3.6,19.2-6.9,28.6c0.4-6.4,0.4-12.6,1.4-18.9c0.2-1.4,0.9-12.5-2.9-10.5c-1.5,0.8,1.1,13.6,0.5,15.9
				c-0.7,3.2-6.6,14.3,0.4,15.4C804.3,501.2,803.4,503.9,802.7,506.4z M826.2,472.1c1.3,3.9,4.3,6.8,5.3,10.9
				C829.7,482.6,826.5,476.4,826.2,472.1z"/>
		</g>
		<g class="body">
			<path class="st0" d="M659.4,346.2c0.5,5.3,0.6,15.5-1.7,20.4c-1,2.2-2.1,1.7-3.4,3.6c-1.7,2.6-1.6,9.4-1.9,12.5
				c-1.5,14.1,3.2,27.6,16,34.6c5.3,2.9,11.3,2.6,16.4,6.1c3.9,2.8,5,3.2,5.1,7.7c0.1,3.8,0.4,6.9,1.9,10.5
				c5.1,12.5,15.3,22,28.8,23.6c7.3,0.8,10.7,3.8,16.8,7.5c6,3.6,12.5,6.2,19.5,7.4c14,2.3,29.5,1,43.2-2.8
				c6.7-1.9,12.3-4.9,18.5-7.9c6.1-3,13.7-1.8,20.1-4.8c12.3-5.7,22.6-12.6,31.2-23.4c2-2.5,11.7-13.9,7.3-16.5
				c-2.9-1.8-4.4,3.7-6.4,5.4c-5.1,4.4-11.7,7.8-17.3,11.5c3.1-12.4,2.6-33.4,16.5-38.9c3.3-1.3,6.6-2.2,10-2.8
				c2.4-0.4,5.1-0.4,7.2-1.9c6.5-4.8-2-9.4-6.9-9.4c2.8-7.7-7.3-10.3-12.6-11.4c-4.9-1-9.3-1.2-13.7-3.9c-3-1.9-2.6-1.6-3.1-4.4
				c-0.4-2,0.1-3.7-0.5-5.8c-2.2-7.2-10.6-13.3-18.2-12.3c-4.3,0.6-6,3-8.8,5.8c-0.6,0.8-1.1,1.7-1.5,2.7c-0.8-0.3-1.7-0.5-2.5-0.7
				c-2.3,0.1-5.3-1.1-7.6-1.6c5.3-2.4-10.4-32.5-12.1-36.9c-1.3-3.1-4.8-12.2-7.1-4.7c-1.8,5.9,1.3,13.5-2.1,18.9
				c-2.7-4.3-2.1-28.1-7.8-27.2c-5.1,0.8-2,20.6-5.9,25.1c-7.9,9.1-9.4-12.6-9.4-15.7c0-2.5,1.6-10.3-2.9-9.8
				c-3.4,0.4-2.3,11.2-2.6,13.7c-0.8,6.5-3,27.1-13.8,21.5c-8.6-4.5-9.1-18.6-10-26.6c-0.3-3,0.7-13.1-4.1-12.4
				c-3.7,0.5-5.1,13-5.8,15.9c-2.5,11.9-3.2,24.4-7.3,35.8c-0.6-3.4-2.8-23.5-8.3-13.8c-2.2,3.9-2.8,9.4-3.8,13.7
				c-0.5,2.1-0.7,5.1-1.9,6.8c-1.2,1.9-3.4,2.1-5.8,2.8c-0.8-3.3-1.3-14.2-6.6-10c-1.7,1.3-2.3,6.4-2.8,8.4c-1,4.2-1.4,4-5.8,3.6
				c-4.3-0.4-5.2-1-7.2-4.8c-1.5-2.8-2.7-5.8-3.9-8.8c-2.2-5.5-4.1-11.1-6.7-16.5c-1.4-3-13.8-28.8-17.8-23.9
				c-2.1,2.6,3.2,12.1,4.1,14.8C656.3,333.3,658.8,339.7,659.4,346.2C659.7,349.4,659,342.3,659.4,346.2z"/>
			<path class="st3" d="M658.4,404.6c4.4,4.2,9.4,9.8,15.2,12.1c3,1.2,6.3,1.2,9.2,2.7c2.9,1.6,7.9,4.7,10.1,7.2
				c2.6,3,0.9,6.6,1.8,10.6c1,4,3,7.9,5.3,11.3c5.7,8.6,13.6,14.1,24,15c6.7,0.6,10.6,5.3,16.3,8.6c6.1,3.6,12.7,6.2,19.8,7.3
				c14.9,2.1,31.2,0.7,45.4-4c7-2.3,13.6-5.7,20.6-8.1c6.8-2.3,13.7-3.7,20.3-6.5c12.1-5.2,22.7-15.4,29.5-26.7
				c0.4-0.7,5-7.9,1.9-7.8c-0.5,0-2.9,3-3.6,3.6c-0.8,0.6-4.7,4-6,3.7c-1.4-0.3-1.7-4.2-2.5-5.7c-1.5-2.7-3.7-4.3-5.9-6.4
				c0.1,0.1-2.6-1.5-2.6-1.6c-0.1-0.6,1.6-3.3,1.9-4.1c2.6-6.1,4.8-13.3,11.8-15.6c5-1.7,13.4,1,17.7-2.7c6.1-5.3-5.6-7.1-8.9-6.8
				c6.5-6.3-1.6-14-9.1-11.3c-4.1,1.5-8.7-0.8-12.7-2.8c-2-1-4.8-4.5-7.2-4.1c7-16.1-20.9-28.7-26.2-9.6c-0.5-0.3-2-1-0.1-0.5
				c-7.5-3.4-13.3-10.4-20.2-14.8c-8.2-5.2-16.4-6.6-26-6.1c-10.2,0.5-20.4,2.9-29.5,7.8c-9.3,5-18,9.9-28.3,12.7
				c-4.9,1.3-10.3,2.7-14,6.4c-1.6,1.6-2.1,4.6-3.7,5.9c-1.8,1.5-3.3,1.1-5.6,0.5c-7.7-2-15.2-6-22.3-9.2c0,2.7-1.5,5.3-1.5,8
				c-3.2-0.3-6.5-1-9.7-1.5c-1.5-0.2-5.4-1.7-6.3-1.5c-1.8,0.4-1.9,4.6-2.9,7C649.8,388.2,653.9,394.9,658.4,404.6
				C664.8,410.8,655.4,398.2,658.4,404.6z"/>
			<path class="st4" d="M655.3,313.8c10.3,13.5,15.5,29.5,22.4,44.7c1.9,4.3,5.3,12.8,10.2,14.8c6.1,2.5,6.5-8.3,7.6-12.2
				c0.8-3,1.9-8.6,4.6-4.3c1.8,2.9,1.7,8.1,2.8,11.4c1.1,3.6,1.3,4.4,3.8,2c2.3-2.2,3.4-7.4,4.2-10.3c0.8-2.7,3.9-20.8,7.1-19.9
				c3.9,1.2,3.5,15.5,4.7,19c5.1-8.2,5.3-20.3,7-29.6c0.9-5.3,1.9-10.6,3.3-15.7c0.5-2,1.9-11.2,4.9-8.3c2.2,2.2,1.7,14.5,2.1,17.5
				c0.6,4.4,1.4,9,3.3,13c2.7,5.6,10.4,12.7,15.9,6.2c4.5-5.2,5.4-15.4,6.2-21.9c0.2-1.7-0.3-11.2,1.4-11.7c2.8-0.8,1.6,9.3,1.7,11.1
				c0.2,4.5,0.8,19.1,9.1,16c6.3-2.4,5.5-16,6.2-21.1c0.6-4.8,2.7-8.1,3.9-1.4c0.8,4.8,0.8,9.7,1.6,14.5c0.3,1.7,1.3,9.2,3.8,8.6
				c1.5-0.3,1.9-4.7,2.1-5.9c0.5-3.1,0.5-6.1,0.6-9.2c0.1-4,0.7-10.3,3.6-3.8c4.5,9.9,9.1,20.2,12.7,30.4c0.6,1.8,4.2,10,0.2,8.4
				c-1.2-0.5-2.8-3-3.9-3.9c-1.9-1.6-3.9-3-6.1-4.1c-8.6-4.6-18.7-5.9-28.3-4.9c-21.3,2.2-39.5,15-55.5,28.4
				c-8.5,7.1-16.4,16.9-28.6,15.3c-5.4-0.7-10.6-2.9-15.5-5.2c-3.4-1.6-13.7-5.7-14.9-9.3c-0.4-1.4,0.9-2.6,1.1-4.2
				c0.2-1.8-0.7-4-1-5.8c-0.9-6.1-0.5-12.2-0.7-18.4c-0.2-5.8-1.1-11.6-2.3-17.3c-0.7-3.3-1.8-6.5-2.5-9.7
				C653.7,316.8,652.9,310.7,655.3,313.8C660.4,320.5,654.5,312.8,655.3,313.8z"/>
			<path class="st1" d="M655.8,398c1.8,5.9,4.2,7.7,9.8,8.2c5.8,0.6,11.2,2.6,16.2,5.6c9.7,5.8,17.3,14.5,24.3,23.3
				c13.2,16.4,27,40,49.9,43.3c6.1,0.9,12.3-0.1,18.4-0.3c8.2-0.3,16.4-0.5,24.4-2.7c17.2-4.6,31.1-16,40.8-30.6c1.9-2.8,4-5.7,5.1-9
				c1.4-4.1,0-7.9,0.2-12.1c0.1-1-0.2-4.6,1.4-4.4c1.3,0.2,0.8,2.6,1.8,3.7c3.2,3.5,6.3-0.1,8-3c3.3-5.5,4.3-12.5,9.1-17.1
				c4.1-4,9.3-3.8,14.6-4.1c2.8-0.1,13.7-1.9,7-5.9c-3.5-2-10.3-0.8-13.9,0.6c-7.2,2.8-12.2,9.3-15.1,16.2c-0.9,2.1-5,14.8-8.8,9.6
				c5.8-0.8,6.9-8.7,6.9-13.3c-3.3,3.5-11.6,1-15.6,0c-1-0.3-4.7-1.7-5.5-1.4c-0.3,0.1-1.1,3.1-1.3,3.6c-1.2,2.4-3,4.4-3.9,6.9
				c-2.8,7.4,3.4,18.4-8.6,17.1c-21-2.2-39.9-17.6-61-17.1c16-3.2,31.2-4.8,43.9-16.2c5.2-4.7,9.5-10.3,12.7-16.5
				c1.4-2.7,2.2-7.1,4.1-9.2c1.1-1.2,3.4-1.9,4.8-2.7c-20.3-11.8-52.2-11.3-73.3-2.2c-12.4,5.3-25.1,10.4-36.7,17.5
				c-5.6,3.5-10.2,7.5-14.7,12.2c-1.9,2-10.3,8.5-10.3,8.5S666.8,407.3,655.8,398z M722,430.1c10.2-0.4,18.9-9.3,28.4-12.4
				C740.4,423,735.2,434.6,722,430.1C725.7,430,722.9,430.4,722,430.1z M764.3,344.7c-13,3.5-23.7,12.3-33.7,20.9
				c-9.2,7.9-18.6,17.1-30.5,20.5c-14.1,4.1-27.9-2.8-38.4-12c-0.1-0.1-2.2-1-2.4-2.1c-0.2-1.1,0.3-1.6,0.3-1.6l1-2.2l-0.8-5
				c0,0-0.5-9.2-0.4-13.8c0.4-12.2-1.9-23.3-6-34.9c11.2,14.5,15.9,31.9,24.2,48c1.8,3.5,8,15.9,13.6,12.7c4.8-2.7,4.1-14.2,6.4-18.8
				c0.4,2.9,3.2,19.9,7.6,17.5c2.8-1.5,4.3-11.6,5.2-14.4c1.9-6.2,3.6-12.5,6.2-18.5c2.3,3.7,2.2,9.3,2.9,13.5
				c0.4,2.4,0.5,7.4,3.3,5.2c2-1.6,2.8-8,3.3-10.1c1.1-4.7,2-9.4,2.8-14.1c1.8-10,4.8-29.8,6.8-29.8c2,0,1.3,18.6,4.1,27.4
				c1.8,5.7,7.2,13.9,14.3,12.9c11.7-1.6,9.8-36.4,12.1-36.4s-2.2,27.5,8.4,27.5c10.5,0,8-26.9,10.1-27.1s2.8,25.9,6.1,27.2
				c6.4,2.5,5-18.4,5.6-21.9c3.3,9.6,8.9,18.5,13.4,27.5c0.7,1.3,8.7,15.9,2.4,12.6C791.1,344.4,781.2,340.3,764.3,344.7z"/>
			<path class="st2" d="M651,318.4c3.1,9.4,6.3,18.8,6.6,28.8c0.1,4.2,0.1,8.4,0.8,12.6c0.3,2,1,3.9,1.4,5.9c0,0.1,0.2,5.3,0.2,5.3
				s1.9-2.2,1.9-2.3c-2.3-1.6-1.8-12.7-1.8-15.5c0-11.9-1.5-22.1-5-33.5c0.1,0.1,0.2,0.3,0.2,0.5c1.2,3.2,7.5,8.8,10,13
				c4.4,7.4,6.6,16.2,10.1,24c2.2,4.9,6.6,16.3,13.2,17.3c7.3,1.1,7.8-12.6,9.5-17.3c0.9,4,2.6,21,9.2,14.2
				c6.6-6.9,6.7-20.4,9.8-28.8c1,3.7,0.5,15.1,3.7,17.3c3.5,2.4,4.9-4,5.7-6.4c4.3-13.9,4.9-28.6,9.1-42.6c1.1,11.6,1.6,35.6,18.3,36
				c-16.4,7.5-27.4,23.9-43.3,31.4c-7,3.3-14.9,4.3-22.6,4c-6.3-0.2-12.1-2.1-17.8-4.9c-1.8-0.9-11.8-8-13.1-6.4
				c15.2,15.1,36.8,21.1,56.3,9.6c16.9-10,26.7-27.5,46-34.2c9.7-3.4,23.2-3.3,33.5-0.3c6.2,1.8,11.2,5.5,16.4,9.2
				c3.2,2.3,6.4,4.7,9.8,6.6c0.3,0.1,3.7,1.6,3.8,1.9c0.3,0.7-1.2,4.4-1.4,5.3c-4.1-1.2-7.8-3.2-11.8-4.5c-6.4-2-13.3-2.3-20-2.4
				c-14.6-0.1-28.6,1-42.3,6.3c-14.3,5.6-27.5,13.6-40.2,22c-8.8,5.8-20,16.3-31.4,14.1c-2.5-0.7-19.9-13.8-20.8-12.8
				c4.9,5.1,9.1,11.1,15.3,14.8c-0.5-0.2-6.5-1.6-6.3,0.4c6.6,0.2,12,5.8,17,9.4c5.6,4.1,11.1,7.6,16,12.7c15,15.2,27.1,34.1,46.6,44
				c12.7,6.4,27,7.1,40.9,6.4c10.7-0.6,21.5-2.7,31.3-7.3c3.5-1.6,6.8-3.6,9.8-5.9c3.5-2.7,6.6-7.9,10.2-10.1c3.5-2.1-0.2-0.5,3-0.2
				c1.3,0.1,2.5,0.8,4,0.9c3.2,0.1,6.6-1.4,9.4-2.8c4.4-2.3,8.3-5.5,12.3-8.5c4.5-3.3,20.3-14.4,15.9-22.2c0.1,0.1-5.7,8.2-6.3,9.2
				c-2.5,3.9-5.3,7.5-8.8,10.5c-6.1,5.2-18.3,11.9-26.7,9.3c3.9-5.9,7-12.9,7.7-20c-0.2,2.2-3.6,7-4.7,9c-1.8,3.2-3.7,6.3-5.8,9.2
				c-5.8,8-13.2,14.5-21.9,19.1c-16.9,8.7-41.4,11.8-59.7,6.1c-15.8-4.9-27.3-17.7-37.5-30c-6.9-8.3-13.3-17.3-21.7-24.2
				c-6-5-13.4-9.4-20.3-13c9.1,2.2,17.3-3,24.3-8.2c7.6-5.6,15-11.4,22.8-16.7c11.2-7.6,23.2-13.9,36.5-16.9c12-2.7,25-1.6,37.2-1
				c8.3,0.4,17.8,4.5,25.9,3.8c-0.9,6.6-7.4,14.1-11.5,19.2c-4.2,5.4-9,10-15.1,13.2c-5.9,3-12.3,4.6-18.8,5.7
				c-3.5,0.6-16,4.6-18.5,2.2c-0.5,1.9,0,0.6-0.8,1.1c0.6,0.3,0.6,0.7,0.2,1.3c2-0.4,4.4,1.2,6.4,1.8c3.2,0.9,6.5,1.2,9.7,2.1
				c6.2,1.7,12.2,4.1,18.2,6.5c6.1,2.4,12.1,4.8,18.4,6.4c5.2,1.4,12.4,3.3,17.4,0c8.6-5.5,5.9-20.7,6.6-29.3
				c3.5,8.4,13.6,9.4,21,5.8c-1.1,2.9-2.6,9.2-3.8,11.1c-0.2,0.3-1.8-1.1-1.9-1.1c0.9,0.7,0.1,4,2.8,2.5c-0.3,0.5-0.7,1-1.2,1.4
				c-0.1,0,0,0,0.3,0c0,0,0,0,0,0c-0.1,0-0.4,0-0.5,0c0.1,0,0.1,0,0.2,0.1c-0.9,1.2-2.8-5.6-3.4-5.9c-1.9,3.8-0.1,10.5,4.9,9.1
				c4.1-1.1,5.9-7.6,7.4-11c2.7-5.8,5.5-11.9,12.4-13.4c4.7-1,14.2,1.7,17.2-2.6c3.1-4.4-3.4-7-6.9-7.4c1.7-4.2-2.4-10.3-7.2-9.2
				c3-0.6,6.5,6.8,3.7,9.1c-0.7,0.5-4.1,0.4-5.2,0.4c-3.5,0.2-5.1,0.2-8,2.8c-3.5,3.2-6,7.3-9.3,10.6c-4.7,4.8-14.6,5.8-19.3,0.5
				c-3.7-4.2-3.3-11.5-1.1-16.3c2-4.3,5.6-2.3,9.3-4.4c1.8-1,2.7-4.1,4.3-4.8c1.8-0.8,2,0.2,3.9,1.3c3.7,2.2,7.6,2.6,11.8,2.8
				c1.6,0,8.9,1,9.7-0.4c-4.9-3.1-10.8-2.3-16-4.3c-4.6-1.7-7.5-7.3-11.8-2.7c-2.7,2.8-2.6,4.7-6.4,5.9c-4.9,1.5-10.2,5.5-13.8-0.5
				c-3.4-5.7-3.2-19.3,3.2-23.7c3.3-2.3,7.5-1,10.6,1.2c5.8,4.2,6.2,9.4,6.2,15.8c0,0.3,3.2-3.4,3.4-4.1c0.8-2.7-0.3-5.5-1.7-7.7
				c-3.2-5.1-10.5-9.3-16.6-7.6c-4.6,1.3-7.4,5.9-8.9,10.1c-3.1-3.1-6.9-5.7-9.9-9c-3.1-3.3-3.5-7.2-5.1-11.6
				c-3.2-9-11.4-23.7-11.4-23.7s-0.3,5.2-1.2,10.8c-0.4,2.5-0.9,7-4.2,6c-3.1-0.9-4.5-8.6-4.7-11.1c-0.4-4.5-0.8-11.8-2-11.8
				c-1.2,0.1,1.2,24.9-8.7,23.7c-12.4-1.5-8.5-24.5-10-24.6c-1.5-0.1-0.3,35.7-14.3,32.7c-5.7-1.2-9.4-6.4-11.4-11.6
				c-2.7-7.2-3.7-26.1-4.7-26.1c-1-0.1-2.2,5.5-3.2,9.5c-1.3,5.1-2.2,10.2-3.2,15.4c-1.6,7.9-2.3,19.4-7.1,26.1
				c-1.8-4.3-1.4-9.6-2.3-14.1c-0.7-3.5-2-7.8-4.8-3.7c-5.8,8.3-4.1,20.7-10.4,29c-1.5-3.3-2-19.3-7.6-17.1c-4.9,2-3.7,12.5-6.2,16.3
				c-1.7,2.4-0.7,2.2-3,1c-4.8-2.5-7.6-11.4-9.6-15.9c-3.2-7.6-5.6-16.2-10-23.2c-1.2-2-2.9-3.8-4.4-5.6c-2.2-2.7-4.6-7.3-7.4-9.3
				C654.3,313.8,649.6,314.1,651,318.4C653,324.2,650.6,317.1,651,318.4z M871.4,391.8C871.5,391.8,871.5,391.8,871.4,391.8
				C871.4,391.8,871.4,391.8,871.4,391.8z M859.4,403.9c3.3-6,8.2-11.9,15.1-11.6c3.4,0.2,4.3-1.2,6.7-1.9c5.8-1.6,11.2,4.8,2.8,5.6
				C873.9,397,866.6,393.7,859.4,403.9C859.6,403.5,860.2,402.8,859.4,403.9z M821.8,376.4c1,5.3,5.8,11.7,12,8.9c-0.7,3-1.2,6-1,9
				c0.4,5.7-1.8,10.7-2.6,16.6c-0.8,6.3-1,15.1-9,15.7c-11.4,0.8-24.3-5.5-35-8.8c-2.7-0.8-5.4-1.6-8.2-2.4
				c-5.6-1.5-12.2-1.4-17.5-3.8c13.1-2.3,27-2.3,39-8.8C809.7,397.3,817.1,386.7,821.8,376.4C822.1,378.2,820.8,378.6,821.8,376.4z
				 M759.6,344.6c3.8-3.3,5.5-8.8,6.8-13.5c4,10.1,15.5,11.3,18.7,0.1c1,3.8,3.3,9.4,8.3,8.4c5.1-1,5.6-7.9,5.9-12
				c3.8,8.1,7.9,16,11.2,24.4C795.3,339.9,778,339.4,759.6,344.6C759.8,344.4,760.7,344.3,759.6,344.6z M705.2,370
				C705.2,370,705.2,370,705.2,370C705.2,370,705.2,370,705.2,370z M704.5,371C704.5,371,704.5,371,704.5,371
				C704.5,371,704.5,371,704.5,371z M699,355C699,355.1,699,355,699,355C699,355,699,355,699,355z M699,355C699,355,699,355,699,355
				C699.2,355.1,699.1,355.1,699,355z M689.9,370.6L689.9,370.6C689.9,370.6,689.9,370.6,689.9,370.6z M661.8,368.9
				C661.8,368.9,661.8,368.9,661.8,368.9C661.8,368.9,661.8,368.9,661.8,368.9z M654.4,317.3C654.4,317.3,654.4,317.3,654.4,317.3
				C654.5,317.2,654.5,317.3,654.4,317.3z M719.2,425.4c-0.9-0.9-1.7-1.7-2.6-2.6c3.6,2.1,7,4.2,11.1,5c6.2,1.2,18.1-0.3,21.6-6.8
				c0.1-0.3-5.2,0.6-5.8,0.8c-2.7,0.8-5.1,2.3-7.8,3.1c-5.2,1.6-10.4,1.2-15.2-1.4c-6.4-3.5-10-9.9-15.3-14.6c-1.2-1-2.4-1.9-3.7-2.7
				c-2-1.2-2.5-1.2-3.9-0.7c-0.5,0.2-3.1,1.5-3,3c0.2,1.5,4.7,0.8,7.2,3.4c4.5,4.7,8.3,9.4,13.5,13.3c7.2,5.4,25.6,26.8,36.1,18.2
				c-1.1,0.9-13.7-4.4-15.1-5C729.9,435.3,724.3,430.5,719.2,425.4C718.4,424.6,721,427.2,719.2,425.4z M697,408.3
				C697,408.3,697,408.3,697,408.3C696.9,408.3,697,408.3,697,408.3z M651.9,378.2c0.1-0.7,2.7-9.5,4.9-7.2c1.5,1.5-2.6,9.6-3,11.3
				c-2.3,9.3,2.9,18.5,7.5,26.3c-5.3,3.7-8.7-8.8-9.1-11.5C651.4,391,651.1,384.2,651.9,378.2C652.2,375.8,651.7,379.4,651.9,378.2z"
				/>
		</g>
		<g class="fin_tail">
			<path class="st0" d="M583.5,472.5c4-17.3,11.8-32.9,13-50.9c0.5-8.6-0.5-17-0.6-25.6c0-8.6,3.2-15.6,5.1-23.7
				c4-17.3,0.6-37.3,0.4-54.9c-0.1-8.9-0.4-17.9,0.1-26.7c0.2-3.3,1.8-21.2,6.8-11.5c3.5,6.7,4.7,15.9,6.6,23.1
				c2.3,9,4.5,18,7.7,26.7c2.7,7.3,6.2,14.3,11.1,20.4c4.7,5.9,10.9,14.1,17.8,17.1c4.1,1.8,5,1.7,4.8,6.2c-0.2,4.3-1.4,8.7-1.9,13
				c-0.4,4-0.6,8,0.1,12c0.4,2.6,4.2,9.4,2.5,11.8c-1.1,1.7-8.4,3-10.3,3.9c-3.4,1.5-6.6,3.4-9.9,5.2c-7.1,3.9-11.4,8-14.8,15.5
				c-3.9,8.6-7.1,16.7-13,24.2c-5.5,7.1-12,13.4-16.7,21.2c-2.1,3.4-3.8,7-5.1,10.8c-0.7,2.2-0.6,8.5-4.2,8.1
				C577.6,497.8,582.7,475.8,583.5,472.5C585,465.8,581.7,480.2,583.5,472.5z"/>
			<path class="st4" d="M586.8,473.3c3.8-16.4,11.3-31.5,12.8-48.5c0.8-8.6,0.1-17.1-0.3-25.7c-0.3-8.8,2.2-15.8,4.4-24.1
				c4.5-16.7,1.3-36,1.1-53.2c-0.1-8.4-0.2-16.9-0.1-25.3c0.1-4.4,0.2-8.8,0.9-13.1c0.5-3.4,1-7.4,3.8-3.5c2,2.8,2.5,7.9,3.4,11.2
				c1.2,4.2,2.2,8.4,3.3,12.6c2.2,8.8,4.5,17.7,7.6,26.2c2.6,6.9,5.8,13.5,10.3,19.4c4.3,5.7,10.2,13.3,16.1,17.1
				c1.8,1.2,4.3,1.3,5.4,3.2c1.2,2.1-1.5,10.3-1.9,13.1c-0.5,4.1-1,8.1-0.6,12.2c0.4,4.2,2.7,8.1,3.2,12.1c0.4,3.7-1.6,3.1-5,4.4
				c-3.9,1.5-7.5,3.6-11.1,5.6c-7.5,4.2-12.9,8.2-16.7,16.2c-3.5,7.3-5.8,14.8-10.5,21.4c-4.9,6.9-11,12.9-16,19.8
				c-2.6,3.6-4.9,7.5-6.7,11.5c-1,2.4-1.6,9.3-3.3,10.7c-3.6,3.1-2.3-6.6-2.2-8.1C584.9,483.5,585.6,478.4,586.8,473.3
				C588.3,466.6,585,480.9,586.8,473.3z"/>
			<path class="st3" d="M599.2,458.9c0.2,2.4,2.3-1.8,1.6-1c1.8-2,2.4-5.8,4.3-8.1c5-6,9.6-9.1,10.6-17.2c1.1-8.6,2-15.9,10.3-20.7
				c8.6-5.1,20-4.1,29.4-1.8c0.8-3.2-1.8-6.4-2.6-9.4c-1.1-4.4-1.1-9-0.8-13.5c0.2-2.7,3.3-12.1,1.9-14.5c-0.6-1.1-6.6-3.1-8-3.9
				c-9.2-5.2-17.5-12.4-24-20.8c-6.2-8-8.4-16.4-10.6-25.2c-2.6,5.7-2.8,17.1-3.5,24.2c-0.9,8.7-1.6,17.5-2,26.2
				c-1,21.4-3.2,42.4-5,63.7c1.1-15.4,3.8-30.9,3.4-46.4C603.8,397.1,597.5,458.8,599.2,458.9C599.2,458.9,598.9,458.9,599.2,458.9z
				 M599.2,458.9c0-0.4,0-0.8,0-1.2C599.2,457.8,599.3,458.9,599.2,458.9z"/>
			<path class="st1" d="M613.3,344.9c6.8,6.1,11.4,13.2,19.1,18.5c4.5,3.1,9,6.2,13.8,9c1.5,0.9,5.1,2,6,3.4c1.4,2,0.5,4,0.1,6.7
				c-5.5-4.1-12.6-5.2-19.1-6.8c-7.1-1.7-14.1-3.4-21.4-2.5C611.4,363.8,613.3,354.4,613.3,344.9z M610.8,400
				c6-0.5,9.8-9.9,16.1-11.7c8-2.3,17.1,0.1,24.7,2.7c0.1-2.7,0.7-3.6-0.8-5.3c-1.2-1.3-4-1.9-5.6-2.4c-3.7-1.3-7.5-1.9-11.4-2.3
				c-7.8-0.7-15.7-0.1-23.5-0.5C610,387.1,611.1,393.5,610.8,400C614.4,399.7,611.1,393.8,610.8,400z M608.8,438.5
				c1.7-10.3,8.5-21.2,16.1-28.2c6.6-6,18-13.2,27.1-8.6c1.7-5.4-3.8-4.3-7.6-4.3c-5,0-10.5,0.3-15.1,2.3c-4.3,1.9-11.8,9.6-16.8,6.1
				C611.1,416.8,607.9,427.4,608.8,438.5C610.2,430.3,607.9,426.6,608.8,438.5z"/>
			<path class="st2" d="M584.3,490.3c0,1,0,1.9,0.2,2.9c-0.5-2.4,5.9-12.1,7.3-14.5c4.2-7.5,10.3-14.5,15.4-20.7
				c7.2-8.8,13-18.8,19.1-28.4c0,0,0,0.1-0.1,0.1c1.7-2.5,3.8-4.6,6.1-6.6c2.5-2.1,22.4-12.8,21.3-15.7c-11.9,4-23.7,9.4-30.2,20.7
				c-4.4,7.6-8.4,16.3-12.9,23.2c-0.8,1-1.7,2-2.5,2.9c2.3-10.8,4.7-20.6,11.2-29.8c7.4-10.4,18.8-20.6,32.2-20
				c-0.8-0.1-3-1.8-4.1-2.1c-2.5-0.6-5-0.3-7.4,0.4c-6.4,1.9-12,7-16.3,11.9c-7.3,8.4-12.6,18.8-14.9,29.7c-0.3-8,1.5-15.8,3.4-23.6
				c0.5-2.1,1.1-7.9,2.6-9c0.3-0.2,5.2-0.8,5.8-1.1c1.6-0.6,3.1-1.6,4.5-2.5c1.9-1.2,3.6-2.6,5.6-3.6c3.1-1.6,6.5-2.3,9.9-2.9
				c2.9-0.5,7.9-0.3,10.3-2.3c0.2,2.6,1.7,8.6,5.1,8.6c0.4-7.7-2.7-14.9-1.9-22.4c0.4-3.8,6.4-15.9,0.4-19.4c-0.6-0.4-1,6.9-1,6.9
				c0,1.9-0.1,3.7-0.3,5.6c-0.3,2.8,0.4,6.4-2.9,4.4c2.1,0-4.4-3.8-5.6-4.4c-2.6-1.2-5.4-1.9-8.2-2.6c-7.2-1.7-14.6-2.8-21.9-3.5
				c2.8-1.7,0.9-3.4,0.6-5.4c-0.3-2.3,0.3-5.2,0.6-8c0.3-2.6,1.8-17.8-2.7-17.6c-0.2,4.5-0.6,9-1.1,13.5c-0.5,4.8-2.1,11.2-1.3,15.8
				c0.6,3.6,1.1,2.6,5.2,3.2c4.4,0.6,8.8,1.7,13,3c-5.7,0-13.2-0.2-18.5,2.2c1.2-0.5,6.5,1.3,8.3,1.4c4.8,0.2,9.5-0.2,14.3,0
				c4.3,0.2,8.6,0.8,12.7,2.4c1.5,0.6,3.9,1.2,5,2.4c1.5,1.6,0.4,3.9,0.2,6.4c-7.5-3-16.4-6.4-24.7-4.6c-5.4,1.2-8.3,4.3-12,8
				c-0.2-2.3-1.1-14.8-4.2-14.8c-0.1,4.7,0.1,9.4,0.2,14.1c0,1.1-0.5,7,0.1,7.4c1.3,1.1,2.7-1.5,4.1-0.2c0-2.8,6.5-8.6,9.1-10.3
				c2.6-1.6,5.8-2.3,8.9-2.4c3.2-0.1,6.5,0.3,9.5,1.1c2.1,0.5,4.9,1.2,6.7,2.3c3,1.9,1.9,2.3,2.1,6c-6.2-0.4-12.6-0.8-18.6,1
				c-5,1.5-8.1,5.1-12.8,7.3c-4.7,2.2-6.6-1.9-8.1,3c-1.3,4.3-2.1,12-2.8,17.3c-0.8,5.8-1,11.6-1.1,17.5c0,2.9,0.9,7.5-0.1,10.2
				c-1,2.9-6.2,6.6-8.3,8.8c-2.4,2.5-4.9,5.1-7,7.9C588.3,476.8,584.3,483.9,584.3,490.3C584.3,490.5,584.3,490,584.3,490.3z
				 M610.5,398.3C610.5,398.3,610.5,398.3,610.5,398.3L610.5,398.3z M651.5,368.1c-28.6-18.3-39.8-86.1-43.5-86.2
				c-3.7-0.1-2.6,9.2-3,15.9c-0.5,7.4-0.6,14.9-0.7,22.4c-0.2,15.1,0,30.1-1.4,45.2c-0.6,6.6-3.4,12.7-4.5,19.2
				c-1.1,6.6-1.2,13.4-1.1,20.1c0,2.7-0.7,34.1,0.3,34.3c4.8-16.3,2.3-33.1,4.3-49.7c-0.1,0.6-0.2,1.2-0.2,1.8
				c0.8-6.6,2.7-12.8,4-19.3c1.5-7.2,1.3-14.8,1.3-22.1c0-20.6-3-42.1,0.3-62.5c6.8,28.6,12.4,71.3,45.4,82.2
				C652.7,368.7,652.2,368.3,651.5,368.1C650.3,367.3,652.7,368.9,651.5,368.1z M608,285.9C608,285.9,608,285.9,608,285.9
				C608,286,608,285.9,608,285.9z M617.5,343c6,5,9.3,12.2,15,17.4c6.1,5.7,13.5,10.2,20.3,15c-4.7,7.7-20.8-13.5-23.4-16.2
				c-3.1-3.3-6.6-6.3-9.8-9.5c-0.6-0.6-5.4-8.1-4.7-8C615.8,342,616.7,342.4,617.5,343C618,343.5,616.3,342.1,617.5,343z"/>
		</g>
		<g class="fin_side">
			<path class="st3" d="M739.3,405.6c1.9,4.7,8.7,8.3,12.7,11c5.4,3.6,10.9,7.1,16.6,10.4c3,1.7,5.9,2.9,9.2,3.7
				c2.9,0.7,7.1,0.4,9.8,1.6c0.4,0.2,1.6-0.2,1.9,0.1c0.8,0.8,0.3,5.6,0.4,6.8c0.1,3,0.5,6.9-0.5,9.7c-2.6,6.9-10.5-0.9-15.6-1.3
				c-3.3-0.2-6.3,1.2-9.6,1.2c-3.9-0.1-7.7-1.2-11-3.2C739.6,437.7,738.2,419.5,739.3,405.6C741.8,411.4,735.9,446.7,739.3,405.6z"/>
			<path class="st2" d="M737.4,411c0.4,19.7,7.8,34.9,28,37.6c4.1,0.5,10.8-0.2,14.5,1.5c3.9,1.8,1.7,4.5,7,3.7
				c2.5-0.4,2,0.6,2.9-1.3c1-2,0.1-7.1,0.2-9.5c0.2-3.2-0.5-7.6,2.8-9.4c-2.8-1.3-1-3.7-1.3-6.1c-0.5-3.7-1-3.1-4.6-2.4
				c-10.5,2-16.6-0.3-25.8-5.4c-8.9-4.9-14.8-11.9-22.8-18C736.8,404.5,737.3,408.1,737.4,411C737.5,412.1,737.3,408.7,737.4,411z
				 M777.8,438.8C777.8,438.8,777.8,438.8,777.8,438.8C777.8,438.9,777.8,438.9,777.8,438.8z M777.7,438.8
				C777.9,438.8,777.7,438.8,777.7,438.8C777.7,438.8,777.7,438.8,777.7,438.8z M774.5,433.5c-1.6-0.5-3.2-1.2-4.7-1.9
				c6.1,0.7,12.9-2,18.3,2.1c-3.4,3.3-5.7,5.5-5.4,10.4c0.1,1.5,2,2.7,0.2,3.5c0.4-0.2-4.3-3.1-4.9-3.3c2.5-2.1,3.5-5.4,4.7-8.4
				C779.9,435.2,777.1,434.5,774.5,433.5C772.8,433,775.8,434,774.5,433.5z M767.8,427.8c-5.1-0.9-9.6-4.1-13.7-7.1
				C758.5,423.5,763,425.9,767.8,427.8C767.8,427.8,766.7,427.3,767.8,427.8z M782.8,447.9c4.4-1.3,0.8-6.1,4.3-9.3
				c-0.9,5-1,10.1-0.9,15.2C786,451.5,785,449,782.8,447.9z M739.9,411.6c0-1.4,0.1-2.7,0.2-4.1c4.1,4.3,8.6,8.4,12.1,13.2
				c-1.3-0.2,1.1,2.3,1.4,2.7c1.6,2.2,3.8,4.2,5.8,5.9c5.2,4.3,11.3,7.5,17.8,9.3c-6.2,13.5-26.8-14.3-30.4-20.4
				c-1.5,9.1,4.8,17.7,11.8,23.2c1.7,1.4,2.9,2.2,5.2,2.9c2.4,0.7,5.5,1.8,8,2c2.8,0.2,4.9-1.1,7.5,0.6c-10-1-21.2,1.2-29.6-5.8
				C741,434.1,739.7,421.9,739.9,411.6C739.9,410.2,739.8,414.4,739.9,411.6z M762,442.2c-5.5-2.5-10.3-9.2-12.3-14.7
				c3.8,5.6,8.3,11.2,13.8,15.3C763,442.6,762.5,442.4,762,442.2C761.5,442,762.5,442.4,762,442.2z"/>
		</g>
		<g class="eye">
			<path class="st0" d="M830.9,357.6c9.1-10,16.9,11.3,9.2,18.6C830.3,385.5,824.5,364.6,830.9,357.6
				C831.4,357.1,827,361.9,830.9,357.6z"/>
			<path class="st2" d="M832.2,374.7c6.4,10.9,16.2-5.6,10.6-13.6c-2.9-4.1-8-3.8-10.7,0.2C829.5,365,830,371,832.2,374.7
				C834.4,378.5,829.7,370.5,832.2,374.7z"/>
			<path class="st5" d="M834.8,361c5.4-7.8,12,9.6,5.2,15c-7.6,5.9-9.9-11-5.5-15.4"/>
			<path class="st2" d="M835.3,367c0,3.4,6.6,1.2,6.3-1.4C841.1,362.6,835.3,363.5,835.3,367C835.3,367.4,835.3,366.9,835.3,367z
				 M838.2,366.5L838.2,366.5C838.2,366.5,838.2,366.5,838.2,366.5z M837.1,367.2c0.4-0.1,0.8-0.8,1.3-0.6
				C838,368.4,837.4,367.1,837.1,367.2z"/>
		</g>
		<g class="jaw">
			<path class="st3" d="M839,418.5c1.2-1.2,2.7-1.1,4-1.8c2.2-1.3,4.2-3.2,6.3-4.6c3.7-2.5,7.5-4.8,11.5-6.8c5.6-2.8,11.5-5,17.7-6
				c1.9-0.3,4.1-0.1,5.8-0.6c2.5-0.7,5.1-2.9,8.6-1.5c7.2,2.9,4.1,11.6-2.2,13.2c-5.7,1.4-6.1-1.4-8.1,4.5c-1.4,4-3.4,7.8-5.8,11.3
				c-4.8,6.9-11.3,12.9-18.9,16.5c-7.1,3.4-16.1,4.1-20-4C835.9,434.5,833.6,420.2,839,418.5C839.7,417.8,835.5,419.6,839,418.5z"/>
			<path class="st1" d="M837.3,418.7c-4.6,5,4,13.9,9.5,12.7c6.9-1.4,11-11.8,15.2-16.5c6.5-7.4,12.3-5.5,21.2-5.2
				c3.7,0.1,16.1,0.3,12.2-7.4c-2.7-5.3-20.3-2.9-24.2-2c-7.6,1.8-13.8,7-20.7,10.4C845.8,413,840.9,414.8,837.3,418.7
				C834.1,422.2,842.9,412.6,837.3,418.7z"/>
			<path class="st2" d="M836.9,425.1c-0.6,5.8-0.6,13.4,4.4,17.4c6.4,5.1,15.2,0.4,21.3-2.9c8.7-4.8,24.7-16.8,21.2-28.9
				c4.7,0.7,11.2,1.4,14.2-3.1c4-6-1.1-16.2-8.6-11.4c3.6-2.1,10.8,9.3,0.9,11.3c-6.7,1.3-13.5-1.6-20-0.4c-9.2,1.6-20,23.7-28.3,16
				c-0.7-0.9-2.3-1.7-2.7-2.6c-0.4-0.8,0.4-1.3,0-2.8C834.8,418.2,837.2,422.3,836.9,425.1C836.7,427.3,837,424.6,836.9,425.1z
				 M840.5,427.7c9.8,9.1,18.2-10.1,23.7-15.4c2.9-2.8,5.6-3.8,9.4-3.4c2.2,0.2,6.3,1.4,9.1,1.7c-5.6,9.9-9.2,20.2-19.3,26.7
				c-4.4,2.8-11.2,5.8-16.5,3.8C841.7,439.1,841.5,432.5,840.5,427.7C840.9,428.1,840.8,429.3,840.5,427.7z M838.5,420.3
				C838.6,420.4,838.5,420.3,838.5,420.3L838.5,420.3z"/>
		</g>
	</g>
</svg>
