<?xml version="1.0" encoding="utf-8"?>
<svg xmlns="http://www.w3.org/2000/svg" xmlns:xlink="http://www.w3.org/1999/xlink" viewBox="0 0 300 300">
<path class="hook-shape" d="M171,40c-0.6-8.3,3.5-14,3.5-20.6s-0.4-10.7-8-10.6c-7.6,0.1-8.5,5.2-8.2,11.5s5.8,11.8,6.3,19c0.5,7.2,4,56.9,4.8,105.1
	c0.8,48.2,11.1,99.4-24.4,125.1c-35.5,25.7-51.7,4.4-51.1-11.4c1-24.1,4.4-28.4,5-34.1c6.3,5.4,6.3,5.4,6.3,5.4l-8.5-45
	c0,0-4.7,31.6-8.2,52.9c-3.4,21.3-1.7,44.7,14.5,50.1c16.2,5.3,28.5,1.2,44.7-10.6s29.3-27.7,29.7-66.2C177.7,172.3,171,40,171,40z"
	/>
</svg>
