<?xml version="1.0" encoding="utf-8"?>
<svg version="1.1" xmlns="http://www.w3.org/2000/svg" xmlns:xlink="http://www.w3.org/1999/xlink" viewBox="0 0 200 200">
	<g class="hamburger-x">
		<path class="path path-x path-1" d="M32.8,46.3h134.3c0,0-0.2,0,8.5,0c12.3,0,22.3-15.8,11.7-26.5c-10.7-10.7-25.2-4-26.2,6.7s-2.1,14.4-13.7,26l-95,95"/>
		<line class="path path-2" x1="32.8" y1="100" x2="167.2" y2="100"/>
		<path class="path path-x path-3" d="M32.8,153.6h134.3c0,0-0.2,0,8.5,0c12.3,0,22.3,15.8,11.7,26.5c-10.7,10.7-25.2,4-26.2-6.7c-1-10.7-2.1-14.4-13.7-26l-95-95"/>
	</g>
</svg>
