<?xml version="1.0" encoding="utf-8"?>
<svg xmlns="http://www.w3.org/2000/svg" xmlns:xlink="http://www.w3.org/1999/xlink" viewBox="0 0 100 30">
<g class="small-fish">
	<path class="tail" d="M3.3,4.3C3.1,3,18.2,10.8,20.1,11.2c2,0.2,1.7,2.4,1.7,3.3c0,0.9,0.9,1.5-3.5,5.2c-3,2.4-8.8,9.2-9.2,9.1c-0.6-0.2,5.2-11.9,3.9-14.3C11.6,12,4.3,7.4,3.3,4.3z"/>
	<g class="body">
		<path class="body-bottom" d="M88.2,11.7c-1.3-1.4-2.6-2.3-4.8-2.5c-2.6-0.2-3.8,1.6-4.7,1.6c-2.6-0.1-18-2.3-21-2c-3.5,0-16.4,0.5-21.9,1.3c-5.5,0.7-8.1,2.2-14,2c-1.5-0.1-2.6-0.5-3.3-1.2c-0.1,0-0.1,0.1-0.1,0.1c-0.6,0.7-0.4,6.3,1.5,6.6c1,0.2,2.5-1,3.2-1.1c2.3-0.3,10.7,2.3,21.4,3.5c10.8,1.2,20.5,2.2,29.2,1.4c7.5-0.6,12.1-2,15-3c0.9-0.3,1.8-0.7,2.5-1.1C90.6,15.2,89.2,12.9,88.2,11.7z"/>
		<path class="body-top" d="M94.5,13.5c-3.8-2.4-6.2-4.8-18-7.6c-11.9-2.7-20.7-2.2-27-1.5c-6.5,0.4-24.4,5.7-26.1,6.3c-1.7,0.3-4.2-0.3-5,0.2c0.7,0.7,1.7,1.1,3.3,1.2c5.9,0.3,8.5-1.3,14-2c5.5-0.8,18.4-1.3,21.9-1.3c3-0.3,18.4,1.9,21,2c0.9,0,2.1-1.9,4.7-1.6c2.1,0.2,3.5,1.1,4.8,2.5c1.1,1.2,2.5,3.5,3,5.7C94,16,95.5,14.2,94.5,13.5z"/>
	</g>
	<g class="eye">
		<path class="eye-mark" d="M81.1,12.2c0,1.4,1.1,2.5,2.4,2.5c1.3,0.1,2.4-1,2.5-2.3c0-1.4-1.1-2.5-2.4-2.6C82.2,9.7,81.1,10.8,81.1,12.2z"/>
		<path class="eye-center" d="M82.5,12c-0.2,0.8,0.3,1.6,0.9,1.8c0.7,0.1,1.3-0.4,1.5-1.3c0.2-0.8-0.2-1.6-0.9-1.8C83.3,10.6,82.6,11.2,82.5,12z"/>
		<g class="eye-outer">
			<path class="eye-outer-left" d="M83.5,10.2c-0.3-0.5-1.8,0.4-2,1.5c-0.2,1.2,0.3,2,0.7,1.9c0.4-0.1-0.3-1.1,0.1-2C82.8,10.5,83.8,10.6,83.5,10.2z"/>
			<path class="eye-outer-right" d="M84.6,10.4c0.5-0.3,1.5,1.1,1.2,2.2c-0.3,1.1-1.1,1.7-1.5,1.4c-0.4-0.2,0.8-0.9,0.8-1.8C85.1,11,84.2,10.7,84.6,10.4z"/>
		</g>
	</g>
	<path class="mouth" d="M89.2,15c0,0,0.6-0.4,1.7-0.8c1.8-0.6,3.2-0.7,3.7-0.7c-0.2-0.2-0.5-0.3-0.7-0.5c-0.1,0-1.3-0.1-3.1,0.8C89.6,14.4,89.2,15,89.2,15L89.2,15z"/>
	<path class="stripe" d="M23.1,13.8c3-0.4,6.2-1,8.9-1.5c1.2-0.2,2.3-0.4,3.2-0.5c9.1-1.2,16.9-1.3,23-1c7.6,0.3,19.9,1.9,20,2c0-0.3,0.1-0.5,0.1-0.8c-0.1-0.1-12.4-1.7-20.1-2c-6.1-0.4-14-0.2-23.1,1c-1,0.1-2.1,0.3-3.3,0.5c-4.2,0.6-13.2,2.5-13.2,2.6C20,14.1,21.5,14,23.1,13.8L23.1,13.8z"/>
</g>
</svg>
