<?xml version="1.0" encoding="utf-8"?>
<!-- Generator: Adobe Illustrator 19.1.0, SVG Export Plug-In . SVG Version: 6.00 Build 0)  -->
<svg version="1.1" xmlns="http://www.w3.org/2000/svg" xmlns:xlink="http://www.w3.org/1999/xlink" viewBox="490 550 1280 125">
<g class="wave-group">
	<path class="wave-fill" d="M1337.5,603.3c-4.8-1.3-9.7-2.9-14.7-3.3c-9.9-0.7-22,7.6-30.9,3.1c-10.1-5.1-19.1-10.1-30.4-12.3c-10.7-2-22-2.6-32.5,0.1
		c-4.6,1.1-9.1,3.2-13.3-0.2c-3.7-2.9-5.2-9.5-3.8-13.8c2-6.2,15.6-15.6,19.8-6.8c-1.7,1.3-2.4,3.4,0.9,2.7c4.8-1,2.4-9.3,0.7-11.8
		c-6.1-9.2-18.8-11.6-28.8-9.1c-9.6,2.5-15.4,8.9-17.9,18.3c-1.3,4.7-0.8,8.6,0.2,13.3c1.4,7.2,1.3,8-6.8,6.9
		c-12.5-1.8-24.3-5-37.1-4.5c-12.6,0.4-23.2,3.9-34.6,9c-4.7,2.1-7.8,0.4-12.7-0.9c-6.4-1.8-12.2-3.4-18.9-3.8
		c-11.3-0.7-22.8,1.6-33.3,6c-10.4,4.4-23.9,14.7-35.7,8.2c-4.1-2.3-7.7-8.6-4.1-12.8c4.7-5.4,9.3,1.6,6.7,2.1
		c5.5,3.6,8.8-5.7,8.1-9.5c-1.3-6.9-7.5-9.7-13.7-11.4c-13.3-3.7-27.4,6.1-32.3,18.5c-2.4,6.2,0.4,15.4-6.4,17.9
		c-6.8,2.6-15.4,1.1-22.3-0.1c-9.2-1.6-27.4-4.1-27.4-4.1s-3.9-1.2-5.4-1.7c-4.8-1.3-9.7-2.9-14.7-3.3c-9.9-0.7-22,7.6-30.9,3.1
		c-10.1-5.1-19.1-10.1-30.4-12.3c-10.7-2-22-2.6-32.5,0.1c-4.6,1.1-9.1,3.2-13.3-0.2c-3.7-2.9-5.2-9.5-3.8-13.8
		c2-6.2,15.6-15.6,19.8-6.8c-1.7,1.3-2.4,3.4,0.9,2.7c4.8-1,2.4-9.3,0.7-11.8c-6.1-9.2-18.8-11.6-28.8-9.1
		c-9.6,2.5-15.4,8.9-17.9,18.3c-1.3,4.7-0.8,8.6,0.2,13.3c1.4,7.2,1.3,8-6.8,6.9c-12.5-1.8-24.3-5-37.1-4.5
		c-12.6,0.4-23.2,3.9-34.6,9c-4.7,2.1-7.8,0.4-12.7-0.9c-6.4-1.8-12.2-3.4-18.9-3.8c-11.3-0.7-22.8,1.6-33.3,6
		c-10.4,4.4-23.9,14.7-35.7,8.2c-4.1-2.3-7.7-8.6-4.1-12.8c4.7-5.4,9.3,1.6,6.7,2.1c5.5,3.6,8.8-5.7,8.1-9.5
		c-1.3-6.9-7.5-9.7-13.7-11.4c-13.3-3.7-27.4,6.1-32.3,18.5c-2.4,6.2,0.4,15.4-6.4,17.9c-6.8,2.6-15.4,1.1-22.3-0.1
		c-9.2-1.6-27.4-4.1-27.4-4.1v69.7H1770v-69.7c0,0-4.2-1.5-5.6-1.9c-4.8-1.3-9.7-2.9-14.7-3.3c-9.9-0.7-22,7.6-30.9,3.1
		c-10.1-5.1-19.1-10.1-30.4-12.3c-10.7-2-22-2.6-32.5,0.1c-4.6,1.1-9.1,3.2-13.3-0.2c-3.7-2.9-5.2-9.5-3.8-13.8
		c2-6.2,15.6-15.6,19.8-6.8c-1.7,1.3-2.4,3.4,0.9,2.7c4.8-1,2.4-9.3,0.7-11.8c-6.1-9.2-18.8-11.6-28.8-9.1
		c-9.6,2.5-15.4,8.9-17.9,18.3c-1.3,4.7-0.8,8.6,0.2,13.3c1.4,7.2,1.3,8-6.8,6.9c-12.5-1.8-24.3-5-37.1-4.5
		c-12.6,0.4-23.2,3.9-34.6,9c-4.7,2.1-7.8,0.4-12.7-0.9c-6.4-1.8-12.2-3.4-18.9-3.8c-11.3-0.7-22.8,1.6-33.3,6
		c-10.4,4.4-23.9,14.7-35.7,8.2c-4.1-2.3-7.7-8.6-4.1-12.8c4.7-5.4,9.3,1.6,6.7,2.1c5.5,3.6,8.8-5.7,8.1-9.5
		c-1.3-6.9-7.5-9.7-13.7-11.4c-13.3-3.7-27.4,6.1-32.3,18.5c-2.4,6.2,0.4,15.4-6.4,17.9c-6.8,2.6-15.4,1.1-22.3-0.1
		c-9.2-1.6-27.4-4.1-27.4-4.1S1338.9,603.7,1337.5,603.3z"/>
	<path class="wave-stroke" d="M1428.8,600.3c2.8,6.4,10.1,8,16.5,8.3c-7.2,3.7-18.7,1.7-21.6-7c-2.9-9,10.1-16.4,13.3-12.4
		C1431.3,586.8,1425.6,593.1,1428.8,600.3z M1423.7,593.9c-3.6,6.6,0.6,12.1,6,15.6c-7.7-1.1-11.7-11.2-8.3-17.6
		c3.6-6.8,19.1-10.6,18-2.3C1436.5,583.9,1426.2,589.4,1423.7,593.9z M1442.7,590.1c-0.2,0.5-0.5,0.9-1,1.1
		c1.4-15.6-20.7-7-23.2,3.6c-1.3,5.7,1.8,11.8,6.7,14.7c6.4,3.7,13,3.2,20,2.2c-10.2,16.4-31.5,1.2-31.8-14
		c-0.2-8.2,5.4-17,13.4-19.4C1434.2,576.3,1446.3,580.6,1442.7,590.1C1442.6,590.3,1443.5,588,1442.7,590.1z M1424.2,619.4
		c-4.4-2.1-7.7-6.4-9.2-10.9c5.4,7.8,12.6,11.8,22.4,11C1435.5,623.1,1426.8,620.7,1424.2,619.4z M1443.5,583.4
		c-4-6.3-13.2-8.3-20.6-4.2c-5,2.7-9.1,9.3-10.1,15.1c-1.1,6.7,0.5,15.4,4.7,20.7c4.4,5.5,10.6,6.7,17.2,7.4
		c-5.4,3.5-14.7,0.2-19.2-3.4c-5.4-4.4-8.1-11.7-8.2-18.5c-0.2-12.1,11.7-25.7,23.8-26.1C1437.6,574.2,1445,581.4,1443.5,583.4z
		 M1416,622.2c-4.9-2.7-7.7-8-8.6-13.5c4.8,12.2,13.7,16.7,25.1,15.4C1432,625,1424.8,627.1,1416,622.2z M1404.9,584.4
		c5.1-6.9,13.4-12.3,22.2-11.2c-6.8,3.3-11.2,5.8-15.9,12c-4.6,5.9-5.5,13.2-5.1,20.5c0.3,5.8,2.4,11.2,6.7,15.1
		c2.5,2.2,5.6,3.9,8.8,4.7c1.9,0.5,7,0.4,7.8,1c-7.7,3.6-13.1,3.5-18.2,0.2c-4.3-2.7-12.3-9.3-12.4-14.5
		C1398.9,597.7,1398.6,592.9,1404.9,584.4z M1394.2,632.4c-1.3-0.5-2.7-1-4-1.7c0.1-2.7,17.6-5.6,19.9-2.7c-2.9,0.4-5.7,0.7-8.6,1.4
		C1400.1,629.9,1395.4,632.9,1394.2,632.4C1392.8,631.9,1394.5,632.5,1394.2,632.4z M1396.1,633.2c2.4-2.8,14.6-5.3,17.7-3.6
		c-4.1,1-8,2-11.8,4C1399.9,634.7,1398,634.2,1396.1,633.2z M1404,634.2c1.8-1.9,10.9-4.2,13.9-3.6
		C1418,633.5,1406.2,634,1404,634.2z M1428.5,638.1c-2.8,2.2-5.1,5.1-5.1,5.1s-0.8,0.3-1.7,0c-0.9-0.3-1-0.6-1-0.6
		S1425.8,639.3,1428.5,638.1z M1451.7,647.2c1.7-1,6.3-1.9,9.1-1.6C1457.9,646.6,1454.8,646.8,1451.7,647.2z M1465.2,644.5
		c-1.8,0.6-4.4,0.1-6.4,0.3c-1.9,0.2-3.9,0.9-5.8,0.9c2.2-1.7,14.9-4.3,18.7-3.5C1469.5,642.8,1467.3,643.7,1465.2,644.5
		C1464.9,644.6,1467.3,643.7,1465.2,644.5z M1455,643.8c-5.2,1.6-8.6,3.5-14.1,3.1c4.3-3.3,27.3-8,31.8-6.3
		C1472,640.7,1460.3,642.3,1455,643.8z M1478.5,638.7c-4.7,2.1-10.3,0.6-15.5,1.4c-4.9,0.8-9.9,1.7-14.6,3.1
		c-2.7,0.8-7.8,3.8-12.2,3c7.6-6.6,17.4-11.1,26.2-13.4c9.4-2.5,21.2-5.5,30.9-4C1493,629.2,1483.4,636.4,1478.5,638.7z M1496.1,627
		c-2.6,1.3-6,0.4-8.9,0.7c-7.9,0.6-16,2-23.6,4c-6.7,1.8-14.3,3.8-20.1,7.7c-5,3.4-10,10-16.6,4.8c10.9-8.6,23-15.6,36.4-19.3
		c13.5-3.8,29.1-8.1,43.2-6.7c-0.6,0.6-0.8,1-1.2,1.3C1502.2,621.9,1499.3,625.4,1496.1,627z M1499.2,617.3c-4.3,0.3-8.7,0.7-13,1.4
		c-7.8,1.3-15.7,3.2-23.3,5.3c-7.6,2.1-14.8,5.1-21.6,9.1c-2.1,1.3-15.4,11.4-16.6,10.4c3.3-5.6,11.6-9.9,17-13.1
		c6.9-4.1,14.4-7.1,22-9.8c7.8-2.7,15.7-4.9,23.8-6.4c7.8-1.4,23-0.3,23-0.3s-2,1.9-2.9,2.8C1507.3,617.1,1501.1,617.2,1499.2,617.3
		z M1511.6,612.5c-3.5,1.3-9.5-0.1-13.3,0.1c-11.1,0.4-21.6,2.8-32,6.4c-9.8,3.4-24.6,9.6-29,12.6c-2.3,1.6-16.2,10.5-19,10.3
		c-2.1-0.1-5.2-1.6-7.1-2.5c9.6-2.7,18.5-5.8,26.3-12.1c8.3-6.6,15.6-14.2,25-19.4c9.4-5.3,19.1-7.7,29.7-9.1
		c10.2-1.3,21.8-2.3,31.3,2.5c-0.2,0.3-0.3,0.5-0.5,0.7C1519.5,605.3,1515.6,611,1511.6,612.5z M1512.8,597.2
		c-6.2-0.6-12.6-0.1-18.8,0.7c-12,1.4-23,4-33.5,10.1c-9.4,5.4-16.3,13.3-24.8,19.7c-4.5,3.4-9.8,6.2-15.2,7.9
		c-4.3,1.3-11.9,3.6-16,1.1c10.9-1.5,22-4.4,30.3-12.1c8.5-7.9,15.5-17,26.2-22.3c10-4.9,21.5-9.6,32.6-10.7
		c12.2-1.2,24.7,1.9,36.2,5.8c-1.2,0.8-2.2,1.2-3.1,2C1525.4,600.5,1516.6,597.6,1512.8,597.2z M1412.4,654.8
		c3.8,0.4,7.8,0.5,11.5,1.4c2.7,0.7,12.8,2.9,14.9,5c-8.4,1.5-20.1,0.4-28.5-0.7c-2.4-0.3-21.5-4-21.2-6.8
		C1390.4,653.6,1403.9,654,1412.4,654.8z M1403.7,663.5c-5.8-1.1-11.5-2.5-17.2-4.2c-2.9-0.9-12.1-2.4-13.7-5
		c3.2-0.5,7.1-1.1,10.3-0.8c3,0.3,5.6,2,8.4,3.2c5.9,2.3,12.2,3.6,18.5,4.5c6.7,0.9,13.3,1.9,20,2.3c4.2,0.2,13.1-2.2,16.4,0.6
		c-2.5,0.4-5,0.9-7.4,1.2c-1.4,0.2-6.8,1.1-13.7,0.9C1418.4,666,1409.7,664.7,1403.7,663.5z M1422.5,649.4
		c7.4,1.8,15.8,3.3,22.8,6.4c-7.9-1.2-15.4-3.4-22.8-6C1422.4,649.6,1422.5,649.5,1422.5,649.4z M1438.5,651.8
		c0.4-1.3,16.8,0.9,18.5,1.1c7.4,1.2,14.9,1.3,22.3,1.7c13.8,0.8,27.6,0,41.4-0.7c14.3-0.7,28.4-4,41.9-8.5
		c6.8-2.3,13.2-5.4,20.2-7.4c6.7-2,11.6-0.2,16.8,4.5c-21.2-1.3-40.9,11.7-61.6,14.8c-21.3,3.3-43,2.8-64.5,1.9
		C1469.1,659.1,1449.5,655.8,1438.5,651.8z M1574.2,639.2c-6.2,3-12.7,4.9-19.3,6.5C1560.8,641.9,1567,639.1,1574.2,639.2z
		 M1542,649.1c3.4-5,18.7-10.8,28.2-10.7C1560.9,640.3,1542.9,648.8,1542,649.1z M1542.9,646.9c-1.6,1.1-9.4,6.1-11.1,3.7
		c13.7-12.1,29.7-16.2,47.6-13.6c0,0.1,0,0.2,0,0.4c-6.7,0.6-12.8,0.1-19.6,1.6C1553.3,640.5,1548,643.3,1542.9,646.9z M1544,641.3
		c-7,3.5-12.9,11.3-21.2,10.3c16-15,40.1-19.6,61.2-16.1c-3.1,2.2-10.9,0.3-14.4,0.1C1566.7,635.2,1551.5,637.5,1544,641.3z
		 M1523,662.9c-4.2,0.4-8.3,0.9-12.5,0.9c-4.6,0.1-9.1-0.1-13.7-0.4c-3-0.2-9.6-0.1-12.1-1.9c18.5-1.1,37-0.7,55.4-3.3
		c9.3-1.3,18.5-3.7,27.5-6.3c8.1-2.3,15.9-6.4,24.4-7.2c0.1,0.3-29.9,11.3-32.8,12.2C1549.2,660.1,1525.2,662.7,1523,662.9z
		 M1565.5,655.7c5.1-2.2,10.3-4.3,15.6-6.2c4.2-1.6,14-5.1,18.5-4.2c-4.9,0.9-12.7,4-17.8,6.1c-5.5,2.2-10.9,4.8-16.6,6.5
		c-8.8,2.7-18,5-29.2,4.7C1536.3,662.6,1556.9,659.5,1565.5,655.7z M1563.2,666.6c-3.4,0.1-17.3,0-25-2.6c2.7-1.4,8-0.8,11.2-1.3
		c3.9-0.7,7.8-1.6,11.5-2.7c7.9-2.2,15.1-5.6,22.7-8.5c3-1.1,17.7-8.2,19.7-2.8c1.9,5.2-10.9,10.2-14.3,11.3
		c-0.4-2.6,0.3-3.3,3.5-3.8c0.2-5.1-7.1,0.4-7.8,3.4C1583.3,666.4,1566.6,666.5,1563.2,666.6z M1604.2,653.3
		c0.7,5.7-4.8,11.1-10,9.9c1.9-1.6,3.7-2.9,5.4-4.6C1601.2,657,1602.6,655.2,1604.2,653.3z M1589.9,661.3c2.8-0.7,5.5-2.1,7.8-3.9
		c1.1-0.8,4-4.7,5.3-4.3c-2.6,3.7-5.5,6.8-9.5,9.2C1592.1,663.2,1591.2,662.9,1589.9,661.3z M1598.9,635.7c7.3,5.4,13,16.1,8.3,25.1
		c-2.3,4.5-7,6.9-11.9,6.1c-4.2-0.7-9.6-4.1-7.8-9.1c0.6,3.1,1,5.3,4.1,6.3c2.1,0.6,4.9,0.4,7-0.2c4.3-1.3,7.1-5.4,7.2-9.9
		c0.3-12.2-13.1-17.9-23.1-19.6c-13.2-2.1-26.2-0.7-38.8,3.8c-6.3,2.2-12.5,5.3-17.9,9.3c-2,1.5-3.7,3.6-6.1,4.4
		c-1.1,0.4-8.3,1-8.6,0.3c6-4.9,15.9-11.2,22.7-15.1C1550.6,627.5,1579.2,621.1,1598.9,635.7z M1505.3,649.3
		c4.4-0.8,8.9-3.2,13.2-3.8c-3.4,2.7-7.2,6.3-11.5,7.3c-5.2,1.2-11.8,0.5-17.1,0.5c-5.5-0.1-10.9-0.2-16.4-0.3
		c-3.7-0.1-12.4,1-15.5-1.2c10.4-2.4,17,1.3,27.6,0.1C1491.1,651.2,1500.3,650.2,1505.3,649.3z M1728,606.8c16-2,28.3-0.6,41.8,6.3
		c0-2.2,0.6-4.9-0.9-6.2c-1-0.8-3.2-1.1-4.4-1.5c-3.9-1.3-8-2.4-12.1-2.9C1744.5,601.6,1737.7,602.4,1728,606.8z M1725.9,608.2
		c-0.5,1.5,5.7,5.6,7.4,5.9c3.6,0.5,8.4-1.2,12.2-1.2c8.8-0.2,16.1,2.2,24.2,5c0-1.3,0-2.6,0-3.9
		C1756,606.6,1741.3,605.3,1725.9,608.2z M1759,646.9c-0.1,0.1-0.2,0.2-0.6,0.5c3.7,0.7,7.7-0.3,11.4-0.8c0-0.8,0-1.6,0-2.4
		C1766.1,644.9,1762.6,645.9,1759,646.9C1758.9,646.9,1761.8,646.2,1759,646.9z M1757,645c-1,3,6.5,0,7.8-0.3c1-0.3,4.1-0.3,5-1
		c0.9-0.8,0-7.9,0-9.2c-2.1,2-4.3,3.9-6.7,5.7C1761.8,641.2,1757.6,643.2,1757,645C1756.9,645.4,1757.1,644.7,1757,645z
		 M1650.7,629.3c10.6-3.1,22.6-4.3,33.4-1.8c-0.1,0.6-14,0.7-15.6,0.9c-6.2,0.9-12.2,2.2-18.2,3.9c-5.2,1.5-10.4,3.3-15.4,5.3
		c-7.2,2.8-6,4.7-13.6,7.1C1622,644.5,1627.2,636.1,1650.7,629.3z M1653,627.5c0.1,0.1,0.1,0.2,0.1,0.3c-10,2.7-23.8,6.8-31.2,14.7
		c-0.8-2.2-0.5-3.1,1.2-4.1C1628.5,635,1642.7,628.7,1653,627.5z M1621.5,649.9c6.2-4.2,13.8-4.9,21.1-4.9c-1,2.2-9.5,3.6-11.8,4.7
		c-4.8,2.1-9.3,4.8-13.9,7.4C1618.2,654.5,1619.1,651.5,1621.5,649.9C1623.6,648.5,1620.8,650.3,1621.5,649.9z M1639.8,647.7
		c4-1.4,12.2-4,15.8-0.7c-13.9,1.8-25.3,5.7-37.6,12.4c1.6-1.8,3.3-3.4,5.4-4.5C1628.1,652.3,1634.1,649.7,1639.8,647.7z
		 M1645.4,642.6c-1.9-0.3-3.9-0.5-5.8-0.9v-0.3c8.3-1.7,10.2,0.4,18.7,0.6c7.1,0.2,25.1,3.1,34.3,4.1c8.2,0.9,16.6,1.7,24.9,1.9
		c4.2,0.2,8.4,0,12.7-0.3c2.5-0.2,10.3-2.3,12.5-1.2c-14.4,5.2-32.3,3.6-47.3,2.3C1678.5,647.3,1662,645.4,1645.4,642.6
		C1643.9,642.4,1651,643.6,1645.4,642.6z M1703.5,656.5c-5.9-1-11.8-2.7-17.6-4.3c-2.8-0.8-5.7-1.5-8.6-2.3
		c-2.3-0.6-8.1-1.1-9.7-2.8c6.5-0.6,14,1.2,20.5,1.9c7.9,0.8,15.6,1.3,23.5,1.4c8.1,0.2,16,0,24-1.3c2.3-0.4,18.2-5.8,19-4.7
		c-4.5,4-9.9,7-15.7,8.6C1733.7,654.4,1715.7,658.6,1703.5,656.5z M1730.6,657.8c-6.5,0.8-18.1,1.8-24.6,0.9
		c-6.8-0.9-13.6-2.5-20.2-4.1c-5.8-1.4-18.1-5.4-19.8-6.5c-1.7-1.1,27,7.9,39.8,9.5c13,1.6,24.9-1.8,37.3-5.1
		C1744.6,653.5,1735.8,657.1,1730.6,657.8z M1699.5,646.2c-7.8-0.7-15.4-1.9-23.1-2.9c-4.4-0.6-8.8-1.1-13.2-1.7
		c-3.2-0.4-10,0.2-12.7-1.8c20.2-2.2,39.7,0.3,59.8,2.2c10.1,1,20.4,1.6,30.5,0.1c2.5-0.4,23.5-6.5,23.7-6.2
		c-4.8,3.9-10.9,5.9-16.7,7.7C1744.5,644.7,1715.7,647.7,1699.5,646.2z M1633.3,639.2c-1.8,0.7-3.4,1.7-4.8,3.3
		c13.1-2.6,25.6-5.2,39.1-5.3c13.1-0.2,26.3,2.3,39.4,3.8c13.2,1.6,26.5,2.4,39.6-0.5c5.8-1.3,11.5-3.2,16.8-5.9
		c2.5-1.2,5.6-2.5,6.4-5c0.8-2.7,0-7.1,0-9.9c-5.7,2.2-11.7,3.3-17.4,5.6c-5.2,2.1-10.3,4.3-15.8,5.6c-10.4,2.5-21.3,1.9-31.9,0.4
		c-12.6-1.8-24.6-3.9-37.3-2C1655.6,631.1,1644.4,634.7,1633.3,639.2C1631.5,639.9,1636.7,637.8,1633.3,639.2z M1759.2,621.5
		c-3.5,1.2-9.2,3.1-12.9,2.4c-3.8-0.7-8.1-4-10.8-6.6c1.2-2.7,12.6,0.1,14.7,0.9C1752.9,619.3,1756.4,620,1759.2,621.5z M1741.4,615
		c8.7-0.1,16.2,1.3,24.5,4.3c-0.1,3.7-9.6-0.3-11-0.8C1750.5,616.8,1745.8,616.6,1741.4,615z M1644.5,595.2
		c-2.5,3.1-8.6-4.7-9.7-6.6c-2.3-4.4-2.8-10.1-0.6-14.6c2.3-4.8,7.3-7.9,12.3-9.1c3.9-1,13.9-0.3,13.2,5.2
		c-2.8-6.6-12.9-4.8-18.3,0.2C1636.1,575.2,1632.4,587,1644.5,595.2z M1641.8,596.6c-1.4,2.6-8.1-4.9-9.1-6.2
		c-3.2-4.4-3.6-10.2-2.1-15.5c2.5-8.8,14-15.5,22.6-11.2c-5.9,0.3-10.8,0.5-15.7,4.6c-5,4.1-6.8,11.1-4.9,17.2
		C1633.9,589.1,1637.5,593.7,1641.8,596.6z M1660.1,565.2c0.4,0.8,0.7,1.6,0.4,2.6c-8.3-8.1-20.6-8.4-28.1,1.5
		c-7.2,9.5-2.8,23.1,7.2,28.5c-4.2,5.2-10.6-7.2-11.6-9.9c-2.3-6.6-2.9-13.8,0.4-20.2c2.6-5.2,7.8-8.8,13.5-9.8
		C1648,556.7,1657.4,559.2,1660.1,565.2C1660.5,565.9,1659.4,563.5,1660.1,565.2z M1659.6,562.1c-8.9-6.6-14.4-5.6-19.4-4.8
		c-5,0.8-9.7,4.8-12.2,9.5c-5.6,10.3-1.9,24,6.3,31.7c-5,0.2-10.6-6.7-12.8-10.6c-3.5-6.1-5.6-13.8-3.8-20.7
		c1.8-7.1,12.4-14.3,20.5-14.5C1649.1,552.5,1658.2,557.7,1659.6,562.1z M1634.9,601c-7-3.2-12.7-5.1-17-12
		c-3.6-5.7-5.6-15.1-1.6-21.2c0,14.6,5.1,27.8,20,32.4C1636,600.9,1635.5,601.3,1634.9,601C1631.7,599.6,1635.5,601.3,1634.9,601z
		 M1636.7,601.6c9.8-7.9,26-11.5,37.3-10.6c-7.1,0.6-17.6,2.9-21.6,5c-4.4,2.3-12.7,6.6-12.7,6.6S1637.4,601.9,1636.7,601.6z
		 M1699.7,595.5c9.7,3.3,18.5,8.2,26.4,14.7c6.3,5.2,11.4,10.1,18.7,14.1c-3.8,1.7-8.8-3.1-11.9-5c-4.2-2.6-8.5-5.3-12.8-7.8
		c-8-4.6-16.4-8.2-25.4-10c-9.4-1.8-18.8-2.6-28.2-0.9c-4.9,0.9-10.2,2.6-14.7,4.7c-2.4,1.1-2,1.3-4.4,0.9c-2.1-0.4-5.5-2.5-6.4-2.9
		C1651.6,594.9,1679.9,588.7,1699.7,595.5z M1649.7,607.1c14.1-7.7,33.5-7.8,48.7-3.7c15.1,4,28.9,12.9,41.7,21.5
		c-5,2.1-14.7-7.1-18.8-9.4c-6.6-3.6-13.8-7.1-21.3-8.4c-7.8-1.3-15.3-1.7-23.1-0.4c-3.7,0.6-7.6,1.2-11.2,2.3
		c-3,0.9-5.4,1.8-8.5,2.4C1655.4,610.2,1652,608.3,1649.7,607.1z M1701.3,608.1c12.8,2.6,22.9,10.9,34,17c-5.3,1.3-8.6-3.4-13.3-5.2
		c-6.6-2.6-18.5-6.6-25.5-7.6c-6.5-1-14.7-3.2-29.5,0c-1.5,0.3-5.5,2.2-7.7,0.1C1667.3,609.1,1686.9,605.1,1701.3,608.1z
		 M1669.3,613.1c8.5-2.9,21.1-1.2,29.8,0.5c5,1,9.8,2.6,14.6,4.4c4.1,1.5,11.2,3.1,14.1,6.4c-10.7,0-22.2-5.7-32.4-8.5
		C1689,614.2,1678,612.2,1669.3,613.1z M1687.1,619.1c-5.7-0.9-16.8-0.7-22-3.1c0.7-3.2,35.5,1.4,38,5.4
		C1702.8,621.3,1693.3,620.1,1687.1,619.1z M1663.7,616.6c-2.1,0.2-4.2,0.4-6.3,0.5c2-0.9,4-1.8,6.3-1
		C1663.6,616.3,1663.7,616.4,1663.7,616.6z M1703.4,623.2c7.3,1.2,14.5,3.3,21.9,4.1c4,0.5,8.1,0.4,12.1,0.1c2.3-0.2,7.5-2,9.6-0.9
		c-21.2,9.5-42.2,2.8-63.8-0.2c-21.5-2.9-41.5,1.4-60.6,11.4c-0.8-2.7-1.1-2.5,0.4-4.4c0.9-1.1,3.2-2.3,4.4-3.1
		c3.3-2.1,6.6-4.3,10.1-5.9c7.1-3.3,11.2-4.6,22.9-5.9C1671.9,616.9,1689.8,620.8,1703.4,623.2z M1623.9,616.1
		c0.5-0.5,10.2,6.8,12.2,7.5c-1.3,0.6-2.5,1.1-3.8,1.7C1629.4,622.2,1626.7,619.2,1623.9,616.1z M1629.6,613.4
		c-6.3-3.9-12.2-7.9-18.7-11.3c6.5,0.4,33.2,10.7,38.2,16.1C1646,620.2,1634,616.2,1629.6,613.4z M1622.2,609.3
		c3.3,2.2,6.4,4.6,9.9,6.4c3.7,1.9,8.1,2.5,11.6,4.6c-5.5,2.4-8.3,2.5-13.4-1c-4.7-3.3-8.8-7.1-13.4-10.4
		c-9.4-6.8-19.5-7.1-30.7-8.1c4.2-1.2,8.5-1.8,12.9-0.9C1605.5,600.9,1615,604.6,1622.2,609.3z M1616.9,610.2
		c-4.1-2.4-8.5-4.4-13-6.1C1609.1,604.4,1613.1,607.3,1616.9,610.2z M1589.8,598.3c-6.6,2.3-10.4,0.3-17.3,0.5
		C1572,597.9,1588.1,598.3,1589.8,598.3z M1578.3,600.3c-9.6,0.9-18.5,2.3-27.9,4.4c4.6-3.4,10.9-4.9,16.5-5
		C1570.6,599.7,1577.4,598.9,1578.3,600.3z M1550.9,603.1c-5,3.5-10.8,5.2-16.7,6.4C1539.5,606.6,1545.1,604.6,1550.9,603.1z
		 M1540,609.3c-8.5,5.2-15.9,11.8-24.6,18.6c4.3-5.6,9.4-11.1,12.2-13.7C1529.1,612.8,1535.4,609.8,1540,609.3z M1524.2,615.6
		c0.7,1.1-8.1,9.5-9.2,10.7c-3.7,3.8-7,6.4-11.9,8.4c2-2.7,5.2-5.1,7.4-7.7c2.5-2.9,5-5.5,8.1-7.7
		C1520.1,618.3,1522.2,616.7,1524.2,615.6z M1508.5,628c-2.1,2.5-4.3,4.6-7.1,6.4C1502.3,632.7,1506.8,628.6,1508.5,628z
		 M1504.9,635c0.1,0.1,0.2,0.2,0.2,0.3c-4.1,3-9.5,8-14.8,7.6C1494.8,639.2,1499.8,637.2,1504.9,635z M1505.4,640.9
		c-1,0.2-5.2,1.2-5.6,0.4c10-6.6,18.7-15.1,28.2-22.3c10.3-7.9,20.5-13.3,33.4-15.8c25.7-5.1,54,0.4,69.9,22.7
		c-3.5,2.4-6.8,4.8-10.1,7c-5.8-9.6-12.5-18.2-23-23c-10.7-4.9-22.8-5.1-34.1-3.1c-11.3,2-21.8,7.4-31,14.1c-4.3,3.2-8,7-12.2,10.4
		C1516.5,634.6,1511.1,640,1505.4,640.9C1503.6,641.1,1506,640.8,1505.4,640.9z M1511.8,639.4c18.8-15.2,36.6-32.4,62.3-32.8
		c11.8-0.2,24.4,2.8,33.2,11.2c3.9,3.7,8.4,8.1,10.5,13c1.6,3.7,1.6,7.6,1.9,11.5c-0.1,0-1.3-6.1-3-8.8c-2.6-4.4-7-9.2-11.2-12.2
		c-8.9-6.3-21.3-9.8-32.1-9.7c-11.2,0.1-22.7,5-32.1,10.7c-9.5,5.7-17.2,15.2-28.7,17.1C1512.4,639.5,1512.2,639.5,1511.8,639.4z
		 M1562,614.3c14.1-3.5,27.1-0.6,40.1,5.7c-0.2,0.4-9.3-3.1-17.4-3.4s-13.9,0.1-20.3,2.1c-12.8,3.8-24.8,10.6-36.5,15.7
		C1529.5,631.2,1550.1,617.2,1562,614.3z M1614.5,638.8c-13.3-26-46.3-19.2-68.8-11.4c-0.1-0.1-0.1-0.2-0.1-0.3
		c16.1-7.7,33.3-12.6,51.1-7.8c12.8,3.5,28,18.8,20.3,33.1C1616.8,647.8,1616,641.8,1614.5,638.8z M1619.6,667.9
		c2-2,5.5,0.4,5.5,0.4S1621.4,668.1,1619.6,667.9z M1662.8,666.6c-12.2,3.5-26.8,3.1-38.8-0.7c3.7-3.5,11.4-0.5,16.1-0.6
		C1647.5,665.2,1658.9,664.9,1662.8,666.6z M1630.4,663.5c5-3.6,21.9-3.2,28.2,0.8C1651.6,663.7,1638.9,666.3,1630.4,663.5z
		 M1616.6,661.5c-1.8,1.1-1.3,1.5-1.3,1.5s12.5-5.1,19.7-5.6c7.2-0.5,14.5,0.2,21.7,1.4c13.9,2.5,27.5,6.2,41.6,7.6
		c14.2,1.4,27.8,0.7,42-1c7.1-0.8,14.2-2.1,20.9-4.3c1.8-0.6,7.5-1.9,8.7-3.6c1-1.4,0-7.9,0-9.9c-13.1,1.4-24.5,7.3-37.1,10.3
		c-14.1,3.4-28.1,1.7-42.1-1.4c-12.3-2.8-25-9.5-37.8-8.4C1639.9,649.3,1621.8,658.4,1616.6,661.5z M1383.9,628.5
		c2-1.2,8.8-2.3,12.1-2c-1.7,1.3-7.8,3.7-9.7,2.8C1385.5,629,1384.7,628.8,1383.9,628.5z M1730.5,667.8c0-0.2,0-0.3,0-0.5
		c-10,0.4-19.7,1.3-29.8,0.8c-10.5-0.6-20.5-2.4-30.8-4.3c1.7,1.9,11.3,3.4,14,3.9c4.6,0.9,11.2,1.9,15.8,2.3
		C1710.3,670,1719.9,669.8,1730.5,667.8z M1691.9,670c-11.7-1.5-22.8-6.1-34.5-7.6c2.1,2.4,8.2,2.9,11,3.7c4.5,1.2,9,2.6,13.6,3.5
		C1685.2,670.2,1688.5,670,1691.9,670z M1675.2,670c-3.1-1-5.7-1.9-8.9-1.6c-3.2,0.3-6.4,1.2-9.6,1.5c-2.3,0.2-4.7,0.2-7.1,0.2
		c-7.6,0-14-0.2-21.4-1.8c0,0.1-0.1,0.1-0.1,0.2c1.6,0.7,3.1,1.1,4.7,1.6c-5.7,0-12.6-2.3-17.9,0L1675.2,670L1675.2,670z
		 M1625.3,662.6c8.5-3.1,16.4-3.6,25.3-3.6c-17.2-3.4-30.5,2.9-45.1,11.1C1612.4,670,1618.9,664.9,1625.3,662.6z M1601,670
		c15.8-3,18.4-23.2,10.7-34.6c-9.1-13.3-27.9-15.5-42.7-13.6c-17.9,2.3-33.8,12.4-51,17.4c-16.2,4.7-33.6,4.9-49.3,10.8
		c8,2.2,17.9,1.1,26,0.2c8.3-1,16.7-2.4,24.3-5.8c7.8-3.5,14.7-8.6,22.5-12.2c8-3.6,16.4-5.9,25.3-6c15.8-0.3,36.4,4.3,41.8,21.4
		c2.2,6.9,1.6,15.4-5.5,19.2c-5.9,3.2-16.3,0.5-17-7.1C1584,668.9,1594.8,670,1601,670z M1591.5,670c-2.5-1.4-3.5-2.4-6.3-2.1
		c-2.8,0.3-5.8,1.5-8.6,2.1H1591.5z M1586.7,666.6c-1.5-2.8-2-1.9-5.1-1.1c-2.8,0.7-5.7,1.1-8.6,1.5c-5.7,0.7-11.5,1.3-17.3,0.9
		c-5.5-0.4-11.1-1-16.4-2.5c-4.7-1.3-7.7-2.5-12.5-1.3c5.8,3,12.5,5.1,18.9,6C1559.1,670,1573.9,671.8,1586.7,666.6z M1541.1,670
		c-5-1.2-9.5-3.4-14.3-5c-1.9-0.6-11.8-1.9-12.4,0.1c3.9,2.5,8.9,3.6,13.3,4.9L1541.1,670L1541.1,670z M1479.8,670
		c-7.4-0.8-14.6-2.5-22-3.7c-5.9-0.9-12,2.6-17.9,3.7H1479.8z M1397.4,670c18.8,0,37.7,2,55.7-4.6c-3.9-1.9-8-0.2-12.1,0.4
		c-4.7,0.6-9.4,1.3-14.1,1.2c-10.3-0.2-20.9-2.2-30.9-4.5c-13.7-3.2-43.2-12.3-48.6,7.4C1364.1,670,1380.7,670,1397.4,670z
		 M574.8,600.3c2.8,6.4,10.1,8,16.5,8.3c-7.2,3.7-18.7,1.7-21.6-7c-2.9-9,10.1-16.4,13.3-12.4C577.3,586.8,571.6,593.1,574.8,600.3z
		 M569.7,593.9c-3.6,6.6,0.6,12.1,6,15.6c-7.7-1.1-11.7-11.2-8.3-17.6c3.6-6.8,19.1-10.6,18-2.3
		C582.5,583.9,572.2,589.4,569.7,593.9z M588.7,590.1c-0.2,0.5-0.5,0.9-1,1.1c1.4-15.6-20.7-7-23.2,3.6c-1.3,5.7,1.8,11.8,6.7,14.7
		c6.4,3.7,13,3.2,20,2.2c-10.2,16.4-31.5,1.2-31.8-14c-0.2-8.2,5.4-17,13.4-19.4C580.2,576.3,592.3,580.6,588.7,590.1
		C588.6,590.3,589.5,588,588.7,590.1z M570.2,619.4c-4.4-2.1-7.7-6.4-9.2-10.9c5.4,7.8,12.6,11.8,22.4,11
		C581.5,623.1,572.8,620.7,570.2,619.4z M589.5,583.4c-4-6.3-13.2-8.3-20.6-4.2c-5,2.7-9.1,9.3-10.1,15.1
		c-1.1,6.7,0.5,15.4,4.7,20.7c4.4,5.5,10.6,6.7,17.2,7.4c-5.4,3.5-14.7,0.2-19.2-3.4c-5.4-4.4-8.1-11.7-8.2-18.5
		c-0.2-12.1,11.7-25.7,23.8-26.1C583.6,574.2,591,581.4,589.5,583.4z M562,622.2c-4.9-2.7-7.7-8-8.6-13.5
		c4.8,12.2,13.7,16.7,25.1,15.4C578,625,570.8,627.1,562,622.2z M550.9,584.4c5.1-6.9,13.4-12.3,22.2-11.2
		c-6.8,3.3-11.2,5.8-15.9,12c-4.6,5.9-5.5,13.2-5.1,20.5c0.3,5.8,2.4,11.2,6.7,15.1c2.5,2.2,5.6,3.9,8.8,4.7c1.9,0.5,7,0.4,7.8,1
		c-7.7,3.6-13.1,3.5-18.2,0.2c-4.3-2.7-12.3-9.3-12.4-14.5C544.9,597.7,544.6,592.9,550.9,584.4z M540.2,632.4c-1.3-0.5-2.7-1-4-1.7
		c0.1-2.7,17.6-5.6,19.9-2.7c-2.9,0.4-5.7,0.7-8.6,1.4C546.1,629.9,541.5,632.9,540.2,632.4C538.8,631.9,540.5,632.5,540.2,632.4z
		 M542.1,633.2c2.4-2.8,14.6-5.3,17.7-3.6c-4.1,1-8,2-11.8,4C546,634.7,544,634.2,542.1,633.2z M550,634.2
		c1.8-1.9,10.9-4.2,13.9-3.6C564,633.5,552.2,634,550,634.2z M574.5,638.1c-2.8,2.2-5.1,5.1-5.1,5.1s-0.8,0.3-1.7,0
		c-0.9-0.3-1-0.6-1-0.6S571.8,639.3,574.5,638.1z M597.7,647.2c1.7-1,6.3-1.9,9.1-1.6C603.9,646.6,600.8,646.8,597.7,647.2z
		 M611.2,644.5c-1.8,0.6-4.4,0.1-6.4,0.3c-1.9,0.2-3.9,0.9-5.8,0.9c2.2-1.7,14.9-4.3,18.7-3.5C615.5,642.8,613.3,643.7,611.2,644.5
		C610.9,644.6,613.3,643.7,611.2,644.5z M601,643.8c-5.2,1.6-8.6,3.5-14.1,3.1c4.3-3.3,27.3-8,31.8-6.3
		C618,640.7,606.3,642.3,601,643.8z M624.5,638.7c-4.7,2.1-10.3,0.6-15.5,1.4c-4.9,0.8-9.9,1.7-14.6,3.1c-2.7,0.8-7.8,3.8-12.2,3
		c7.6-6.6,17.4-11.1,26.2-13.4c9.4-2.5,21.2-5.5,30.9-4C639,629.2,629.4,636.4,624.5,638.7z M642.1,627c-2.6,1.3-6,0.4-8.9,0.7
		c-7.9,0.6-16,2-23.6,4c-6.7,1.8-14.3,3.8-20.1,7.7c-5,3.4-10,10-16.6,4.8c10.9-8.6,23-15.6,36.4-19.3c13.5-3.8,29.1-8.1,43.2-6.7
		c-0.6,0.6-0.8,1-1.2,1.3C648.2,621.9,645.3,625.4,642.1,627z M645.2,617.3c-4.3,0.3-8.7,0.7-13,1.4c-7.8,1.3-15.7,3.2-23.3,5.3
		c-7.6,2.1-14.8,5.1-21.6,9.1c-2.1,1.3-15.4,11.4-16.6,10.4c3.3-5.6,11.6-9.9,17-13.1c6.9-4.1,14.4-7.1,22-9.8
		c7.8-2.7,15.7-4.9,23.8-6.4c7.8-1.4,23-0.3,23-0.3s-2,1.9-2.9,2.8C653.3,617.1,647.1,617.2,645.2,617.3z M657.6,612.5
		c-3.5,1.3-9.5-0.1-13.3,0.1c-11.1,0.4-21.6,2.8-32,6.4c-9.8,3.4-24.6,9.6-29,12.6c-2.3,1.6-16.2,10.5-19,10.3
		c-2.1-0.1-5.2-1.6-7.1-2.5c9.6-2.7,18.5-5.8,26.3-12.1c8.3-6.6,15.6-14.2,25-19.4c9.4-5.3,19.1-7.7,29.7-9.1
		c10.2-1.3,21.8-2.3,31.3,2.5c-0.2,0.3-0.3,0.5-0.5,0.7C665.5,605.3,661.6,611,657.6,612.5z M658.8,597.2
		c-6.2-0.6-12.6-0.1-18.8,0.7c-12,1.4-23,4-33.5,10.1c-9.4,5.4-16.3,13.3-24.8,19.7c-4.5,3.4-9.8,6.2-15.2,7.9
		c-4.3,1.3-11.9,3.6-16,1.1c10.9-1.5,22-4.4,30.3-12.1c8.5-7.9,15.5-17,26.2-22.3c10-4.9,21.5-9.6,32.6-10.7
		c12.2-1.2,24.7,1.9,36.2,5.8c-1.2,0.8-2.2,1.2-3.1,2C671.4,600.5,662.6,597.6,658.8,597.2z M558.4,654.8c3.8,0.4,7.8,0.5,11.5,1.4
		c2.7,0.7,12.8,2.9,14.9,5c-8.4,1.5-20.1,0.4-28.5-0.7c-2.4-0.3-21.5-4-21.2-6.8C536.4,653.6,549.9,654,558.4,654.8z M549.7,663.5
		c-5.8-1.1-11.5-2.5-17.2-4.2c-2.9-0.9-12.1-2.4-13.7-5c3.2-0.5,7.1-1.1,10.3-0.8c3,0.3,5.6,2,8.4,3.2c5.9,2.3,12.2,3.6,18.5,4.5
		c6.7,0.9,13.3,1.9,20,2.3c4.2,0.2,13.1-2.2,16.4,0.6c-2.5,0.4-5,0.9-7.4,1.2c-1.4,0.2-6.8,1.1-13.7,0.9
		C564.4,666,555.7,664.7,549.7,663.5z M568.5,649.4c7.4,1.8,15.8,3.3,22.8,6.4c-7.9-1.2-15.4-3.4-22.8-6
		C568.4,649.6,568.5,649.5,568.5,649.4z M584.5,651.8c0.4-1.3,16.8,0.9,18.5,1.1c7.4,1.2,14.9,1.3,22.3,1.7
		c13.8,0.8,27.6,0,41.4-0.7c14.3-0.7,28.4-4,41.9-8.5c6.8-2.3,13.2-5.4,20.2-7.4c6.7-2,11.6-0.2,16.8,4.5
		c-21.2-1.3-40.9,11.7-61.6,14.8c-21.3,3.3-43,2.8-64.5,1.9C615.1,659.1,595.5,655.8,584.5,651.8z M720.2,639.2
		c-6.2,3-12.7,4.9-19.3,6.5C706.8,641.9,713,639.1,720.2,639.2z M688,649.1c3.4-5,18.7-10.8,28.2-10.7
		C706.9,640.3,688.9,648.8,688,649.1z M688.9,646.9c-1.6,1.1-9.4,6.1-11.1,3.7c13.7-12.1,29.7-16.2,47.6-13.6c0,0.1,0,0.2,0,0.4
		c-6.7,0.6-12.8,0.1-19.6,1.6C699.3,640.5,694,643.3,688.9,646.9z M690,641.3c-7,3.5-12.9,11.3-21.2,10.3c16-15,40.1-19.6,61.2-16.1
		c-3.1,2.2-10.9,0.3-14.4,0.1C712.7,635.2,697.5,637.5,690,641.3z M669,662.9c-4.2,0.4-8.3,0.9-12.5,0.9c-4.6,0.1-9.1-0.1-13.7-0.4
		c-3-0.2-9.6-0.1-12.1-1.9c18.5-1.1,37-0.7,55.4-3.3c9.3-1.3,18.5-3.7,27.5-6.3c8.1-2.3,15.9-6.4,24.4-7.2
		c0.1,0.3-29.9,11.3-32.8,12.2C695.2,660.1,671.2,662.7,669,662.9z M711.5,655.7c5.1-2.2,10.3-4.3,15.6-6.2c4.2-1.6,14-5.1,18.5-4.2
		c-4.9,0.9-12.7,4-17.8,6.1c-5.5,2.2-10.9,4.8-16.6,6.5c-8.8,2.7-18,5-29.2,4.7C682.3,662.6,702.9,659.5,711.5,655.7z M709.2,666.6
		c-3.4,0.1-17.3,0-25-2.6c2.7-1.4,8-0.8,11.2-1.3c3.9-0.7,7.8-1.6,11.5-2.7c7.9-2.2,15.1-5.6,22.7-8.5c3-1.1,17.7-8.2,19.7-2.8
		c1.9,5.2-10.9,10.2-14.3,11.3c-0.4-2.6,0.3-3.3,3.5-3.8c0.2-5.1-7.1,0.4-7.8,3.4C729.3,666.4,712.6,666.5,709.2,666.6z
		 M750.2,653.3c0.7,5.7-4.8,11.1-10,9.9c1.9-1.6,3.7-2.9,5.4-4.6C747.2,657,748.6,655.2,750.2,653.3z M735.9,661.3
		c2.8-0.7,5.5-2.1,7.8-3.9c1.1-0.8,4-4.7,5.3-4.3c-2.6,3.7-5.5,6.8-9.5,9.2C738.1,663.2,737.2,662.9,735.9,661.3z M744.9,635.7
		c7.3,5.4,13,16.1,8.3,25.1c-2.3,4.5-7,6.9-11.9,6.1c-4.2-0.7-9.6-4.1-7.8-9.1c0.6,3.1,1,5.3,4.1,6.3c2.1,0.6,4.9,0.4,7-0.2
		c4.3-1.3,7.1-5.4,7.2-9.9c0.3-12.2-13.1-17.9-23.1-19.6c-13.2-2.1-26.2-0.7-38.8,3.8c-6.3,2.2-12.5,5.3-17.9,9.3
		c-2,1.5-3.7,3.6-6.1,4.4c-1.1,0.4-8.3,1-8.6,0.3c6-4.9,15.9-11.2,22.7-15.1C696.6,627.5,725.2,621.1,744.9,635.7z M651.3,649.3
		c4.4-0.8,8.9-3.2,13.2-3.8c-3.4,2.7-7.2,6.3-11.5,7.3c-5.2,1.2-11.8,0.5-17.1,0.5c-5.5-0.1-10.9-0.2-16.4-0.3
		c-3.7-0.1-12.4,1-15.5-1.2c10.4-2.4,17,1.3,27.6,0.1C637.1,651.2,646.3,650.2,651.3,649.3z M796.7,629.3
		c10.6-3.1,22.6-4.3,33.4-1.8c-0.1,0.6-14,0.7-15.6,0.9c-6.2,0.9-12.2,2.2-18.2,3.9c-5.2,1.5-10.4,3.3-15.4,5.3
		c-7.2,2.8-6,4.7-13.6,7.1C768,644.5,773.2,636.1,796.7,629.3z M799,627.5c0.1,0.1,0.1,0.2,0.1,0.3c-10,2.7-23.8,6.8-31.2,14.7
		c-0.8-2.2-0.5-3.1,1.2-4.1C774.5,635,788.7,628.7,799,627.5z M767.5,649.9c6.2-4.2,13.8-4.9,21.1-4.9c-1,2.2-9.5,3.6-11.8,4.7
		c-4.8,2.1-9.3,4.8-13.9,7.4C764.2,654.5,765.1,651.5,767.5,649.9C769.6,648.5,766.8,650.3,767.5,649.9z M785.8,647.7
		c4-1.4,12.2-4,15.8-0.7c-13.9,1.8-25.3,5.7-37.6,12.4c1.6-1.8,3.3-3.4,5.4-4.5C774.1,652.3,780.1,649.7,785.8,647.7z M791.4,642.6
		c-1.9-0.3-3.9-0.5-5.8-0.9v-0.3c8.3-1.7,10.2,0.4,18.7,0.6c7.1,0.2,25.1,3.1,34.3,4.1c8.2,0.9,16.6,1.7,24.9,1.9
		c4.2,0.2,8.4,0,12.7-0.3c2.5-0.2,10.3-2.3,12.5-1.2c-14.4,5.2-32.3,3.6-47.3,2.3C824.5,647.3,808,645.4,791.4,642.6
		C789.9,642.4,797,643.6,791.4,642.6z M849.5,656.5c-5.9-1-11.8-2.7-17.6-4.3c-2.8-0.8-5.7-1.5-8.6-2.3c-2.3-0.6-8.1-1.1-9.7-2.8
		c6.5-0.6,14,1.2,20.5,1.9c7.9,0.8,15.6,1.3,23.5,1.4c8.1,0.2,16,0,24-1.3c2.3-0.4,18.2-5.8,19-4.7c-4.5,4-9.9,7-15.7,8.6
		C879.7,654.4,861.7,658.6,849.5,656.5z M876.6,657.8c-6.5,0.8-18.1,1.8-24.6,0.9c-6.8-0.9-13.6-2.5-20.2-4.1
		c-5.8-1.4-18.1-5.4-19.8-6.5c-1.7-1.1,27,7.9,39.8,9.5c13,1.6,24.9-1.8,37.3-5.1C890.6,653.5,881.8,657.1,876.6,657.8z
		 M845.5,646.2c-7.8-0.7-15.4-1.9-23.1-2.9c-4.4-0.6-8.8-1.1-13.2-1.7c-3.2-0.4-10,0.2-12.7-1.8c20.2-2.2,39.7,0.3,59.8,2.2
		c10.1,1,20.4,1.6,30.5,0.1c2.5-0.4,23.5-6.5,23.7-6.2c-4.8,3.9-10.9,5.9-16.7,7.7C890.5,644.7,861.7,647.7,845.5,646.2z
		 M905.2,621.5c-3.5,1.2-9.2,3.1-12.9,2.4c-3.8-0.7-8.1-4-10.8-6.6c1.2-2.7,12.6,0.1,14.7,0.9C898.9,619.3,902.4,620,905.2,621.5z
		 M887.4,615c8.7-0.1,16.2,1.3,24.5,4.3c-0.1,3.7-9.6-0.3-11-0.8C896.6,616.8,891.8,616.6,887.4,615z M790.5,595.2
		c-2.5,3.1-8.6-4.7-9.7-6.6c-2.3-4.4-2.8-10.1-0.6-14.6c2.3-4.8,7.3-7.9,12.3-9.1c3.9-1,13.9-0.3,13.2,5.2
		c-2.8-6.6-12.9-4.8-18.3,0.2C782.1,575.2,778.4,587,790.5,595.2z M787.8,596.6c-1.4,2.6-8.1-4.9-9.1-6.2
		c-3.2-4.4-3.6-10.2-2.1-15.5c2.5-8.8,14-15.5,22.6-11.2c-5.9,0.3-10.8,0.5-15.7,4.6c-5,4.1-6.8,11.1-4.9,17.2
		C779.9,589.1,783.5,593.7,787.8,596.6z M806.1,565.2c0.4,0.8,0.7,1.6,0.4,2.6c-8.3-8.1-20.6-8.4-28.1,1.5
		c-7.2,9.5-2.8,23.1,7.2,28.5c-4.2,5.2-10.6-7.2-11.6-9.9c-2.3-6.6-2.9-13.8,0.4-20.2c2.6-5.2,7.8-8.8,13.5-9.8
		C794,556.7,803.4,559.2,806.1,565.2C806.5,565.9,805.4,563.5,806.1,565.2z M805.6,562.1c-8.9-6.6-14.4-5.6-19.4-4.8
		s-9.7,4.8-12.2,9.5c-5.6,10.3-1.9,24,6.3,31.7c-5,0.2-10.6-6.7-12.8-10.6c-3.5-6.1-5.6-13.8-3.8-20.7c1.8-7.1,12.4-14.3,20.5-14.5
		C795.1,552.5,804.2,557.7,805.6,562.1z M780.9,601c-7-3.2-12.7-5.1-17-12c-3.6-5.7-5.6-15.1-1.6-21.2c0,14.6,5.1,27.8,20,32.4
		C782,600.9,781.5,601.3,780.9,601C777.7,599.6,781.5,601.3,780.9,601z M782.7,601.6c9.8-7.9,26-11.5,37.3-10.6
		c-7.1,0.6-17.6,2.9-21.6,5c-4.4,2.3-12.7,6.6-12.7,6.6S783.4,601.9,782.7,601.6z M845.7,595.5c9.7,3.3,18.5,8.2,26.4,14.7
		c6.3,5.2,11.4,10.1,18.7,14.1c-3.8,1.7-8.8-3.1-11.9-5c-4.2-2.6-8.5-5.3-12.8-7.8c-8-4.6-16.4-8.2-25.4-10
		c-9.4-1.8-18.8-2.6-28.2-0.9c-4.9,0.9-10.2,2.6-14.7,4.7c-2.4,1.1-2,1.3-4.4,0.9c-2.1-0.4-5.5-2.5-6.4-2.9
		C797.6,594.9,825.9,588.7,845.7,595.5z M795.7,607.1c14.1-7.7,33.5-7.8,48.7-3.7c15.1,4,28.9,12.9,41.7,21.5
		c-5,2.1-14.7-7.1-18.8-9.4c-6.6-3.6-13.8-7.1-21.3-8.4c-7.8-1.3-15.3-1.7-23.1-0.4c-3.7,0.6-7.6,1.2-11.2,2.3
		c-3,0.9-5.4,1.8-8.5,2.4C801.4,610.2,798,608.3,795.7,607.1z M847.3,608.1c12.8,2.6,22.9,10.9,34,17c-5.3,1.3-8.6-3.4-13.3-5.2
		c-6.6-2.6-18.5-6.6-25.5-7.6c-6.5-1-14.7-3.2-29.5,0c-1.5,0.3-5.5,2.2-7.7,0.1C813.3,609.1,832.9,605.1,847.3,608.1z M815.3,613.1
		c8.5-2.9,21.1-1.2,29.8,0.5c5,1,9.8,2.6,14.6,4.4c4.1,1.5,11.2,3.1,14.1,6.4c-10.7,0-22.2-5.7-32.4-8.5
		C835,614.2,824,612.2,815.3,613.1z M833.1,619.1c-5.7-0.9-16.8-0.7-22-3.1c0.7-3.2,35.5,1.4,38,5.4
		C848.8,621.3,839.3,620.1,833.1,619.1z M809.7,616.6c-2.1,0.2-4.2,0.4-6.3,0.5c2-0.9,4-1.8,6.3-1
		C809.7,616.3,809.7,616.4,809.7,616.6z M849.4,623.2c7.3,1.2,14.5,3.3,21.9,4.1c4,0.5,8.1,0.4,12.1,0.1c2.3-0.2,7.5-2,9.6-0.9
		c-21.2,9.5-42.2,2.8-63.8-0.2c-21.5-2.9-41.5,1.4-60.6,11.4c-0.8-2.7-1.1-2.5,0.4-4.4c0.9-1.1,3.2-2.3,4.4-3.1
		c3.3-2.1,6.6-4.3,10.1-5.9c7.1-3.3,11.2-4.6,22.9-5.9C817.9,616.9,835.8,620.8,849.4,623.2z M769.9,616.1
		c0.5-0.5,10.2,6.8,12.2,7.5c-1.3,0.6-2.5,1.1-3.8,1.7C775.4,622.2,772.7,619.2,769.9,616.1z M775.6,613.4
		c-6.3-3.9-12.2-7.9-18.7-11.3c6.5,0.4,33.2,10.7,38.2,16.1C792,620.2,780,616.2,775.6,613.4z M768.2,609.3c3.3,2.2,6.4,4.6,9.9,6.4
		c3.7,1.9,8.1,2.5,11.6,4.6c-5.5,2.4-8.3,2.5-13.4-1c-4.7-3.3-8.8-7.1-13.4-10.4c-9.4-6.8-19.5-7.1-30.7-8.1
		c4.2-1.2,8.5-1.8,12.9-0.9C751.5,600.9,761,604.6,768.2,609.3z M762.9,610.2c-4.1-2.4-8.5-4.4-13-6.1
		C755.1,604.4,759.1,607.3,762.9,610.2z M735.8,598.3c-6.6,2.3-10.4,0.3-17.3,0.5C718,597.9,734.1,598.3,735.8,598.3z M724.3,600.3
		c-9.6,0.9-18.5,2.3-27.9,4.4c4.6-3.4,10.9-4.9,16.5-5C716.6,599.7,723.4,598.9,724.3,600.3z M696.9,603.1c-5,3.5-10.8,5.2-16.7,6.4
		C685.5,606.6,691.1,604.6,696.9,603.1z M686,609.3c-8.5,5.2-15.9,11.8-24.6,18.6c4.3-5.6,9.4-11.1,12.2-13.7
		C675.1,612.8,681.4,609.8,686,609.3z M670.2,615.6c0.7,1.1-8.1,9.5-9.2,10.7c-3.7,3.8-7,6.4-11.9,8.4c2-2.7,5.2-5.1,7.4-7.7
		c2.5-2.9,5-5.5,8.1-7.7C666.1,618.3,668.2,616.7,670.2,615.6z M654.5,628c-2.1,2.5-4.3,4.6-7.1,6.4
		C648.3,632.7,652.8,628.6,654.5,628z M650.9,635c0.1,0.1,0.2,0.2,0.2,0.3c-4.1,3-9.5,8-14.8,7.6C640.8,639.2,645.8,637.2,650.9,635
		z M651.4,640.9c-1,0.2-5.2,1.2-5.6,0.4c10-6.6,18.7-15.1,28.2-22.3c10.3-7.9,20.5-13.3,33.4-15.8c25.7-5.1,54,0.4,69.9,22.7
		c-3.5,2.4-6.8,4.8-10.1,7c-5.8-9.6-12.5-18.2-23-23c-10.7-4.9-22.8-5.1-34.1-3.1c-11.3,2-21.8,7.4-31,14.1c-4.3,3.2-8,7-12.2,10.4
		C662.5,634.6,657.1,640,651.4,640.9C649.6,641.1,652,640.8,651.4,640.9z M657.8,639.4c18.8-15.2,36.6-32.4,62.3-32.8
		c11.8-0.2,24.4,2.8,33.2,11.2c3.9,3.7,8.4,8.1,10.5,13c1.6,3.7,1.6,7.6,1.9,11.5c-0.1,0-1.3-6.1-3-8.8c-2.6-4.4-7-9.2-11.2-12.2
		c-8.9-6.3-21.3-9.8-32.1-9.7c-11.2,0.1-22.7,5-32.1,10.7c-9.5,5.7-17.2,15.2-28.7,17.1C658.4,639.5,658.2,639.5,657.8,639.4z
		 M708,614.3c14.1-3.5,27.1-0.6,40.1,5.7c-0.2,0.4-9.3-3.1-17.4-3.4c-8.1-0.3-13.9,0.1-20.3,2.1c-12.8,3.8-24.8,10.6-36.5,15.7
		C675.5,631.2,696.1,617.2,708,614.3z M760.5,638.8c-13.3-26-46.3-19.2-68.8-11.4c-0.1-0.1-0.1-0.2-0.1-0.3
		c16.1-7.7,33.3-12.6,51.1-7.8c12.8,3.5,28,18.8,20.3,33.1C762.8,647.8,762,641.8,760.5,638.8z M765.6,667.9c2-2,5.5,0.4,5.5,0.4
		S767.4,668.1,765.6,667.9z M808.8,666.6c-12.2,3.5-26.8,3.1-38.8-0.7c3.7-3.5,11.4-0.5,16.1-0.6
		C793.5,665.2,804.9,664.9,808.8,666.6z M776.4,663.5c5-3.6,21.9-3.2,28.2,0.8C797.7,663.7,784.9,666.3,776.4,663.5z M529.9,628.5
		c2-1.2,8.8-2.3,12.1-2c-1.7,1.3-7.8,3.7-9.7,2.8C531.5,629,530.7,628.8,529.9,628.5z M489.1,623.2c8.8,0.1,17.7,0.2,26.4,1.7
		c3.8,0.7,8.3,2.8,12.1,2.7c2.4-0.1,8.8-1,10.7-2.1c-16.3-2.4-30.1-6.2-49.2-8.2V623.2z M489.1,616.5c10.2,1.3,20.1,3.3,30.3,5.2
		c10.6,2,22.1,5,32.8,2.6c-0.8-0.9-1.6-2.2-2.5-2.9c-1.6-1.2-0.8-0.7-2.7-0.9c-2.5-0.2-5.5,0.5-8,0.6c-6,0.3-11.9,0-17.9-1.1
		c-10.5-2-21-5.7-31.9-4L489.1,616.5L489.1,616.5z M489.1,615.1c10.3-0.9,19.8,1.5,29.8,3.6c7.8,1.6,19.6,3.3,28.7,0.6
		c-1.4-1.7-12.4,0.1-14.8-0.2c-4.8-0.5-9.7-1.6-14.4-2.7c-9.6-2.3-19.3-5.4-29.3-5.3V615.1z M489.1,610.5c10.3-0.2,20.3,3,30.3,5.4
		c8.1,1.9,15.6,3,26.8,1.8c-1.7-2.1-3.2-4.1-3-8.1c-13.6,6.9-35.9-2.6-54.1-2.9L489.1,610.5L489.1,610.5z M876.5,667.8
		c0-0.2,0-0.3,0-0.5c-10,0.4-19.7,1.3-29.8,0.8c-10.5-0.6-20.5-2.4-30.8-4.3c1.7,1.9,11.3,3.4,14,3.9c4.6,0.9,11.2,1.9,15.8,2.3
		C856.3,670,865.9,669.8,876.5,667.8z M837.9,670c-11.7-1.5-22.8-6.1-34.5-7.6c2.1,2.4,8.2,2.9,11,3.7c4.5,1.2,9,2.6,13.6,3.5
		C831.2,670.2,834.5,670,837.9,670z M821.2,670c-3.1-1-5.7-1.9-8.9-1.6c-3.2,0.3-6.4,1.2-9.6,1.5c-2.3,0.2-4.7,0.2-7.1,0.2
		c-7.6,0-14-0.2-21.4-1.8c0,0.1-0.1,0.1-0.1,0.2c1.6,0.7,3.1,1.1,4.7,1.6c-5.7,0-12.6-2.3-17.9,0L821.2,670L821.2,670z M771.3,662.6
		c8.5-3.1,16.4-3.6,25.3-3.6c-17.2-3.4-30.5,2.9-45.1,11.1C758.4,670,764.9,664.9,771.3,662.6z M747,670c15.8-3,18.4-23.2,10.7-34.6
		c-9.1-13.3-27.9-15.5-42.7-13.6c-17.9,2.3-33.8,12.4-51,17.4c-16.2,4.7-33.6,4.9-49.3,10.8c8,2.2,17.9,1.1,26,0.2
		c8.3-1,16.7-2.4,24.3-5.8c7.8-3.5,14.7-8.6,22.5-12.2c8-3.6,16.4-5.9,25.3-6c15.8-0.3,36.4,4.3,41.8,21.4
		c2.2,6.9,1.6,15.4-5.5,19.2c-5.9,3.2-16.3,0.5-17-7.1C730,668.9,740.8,670,747,670z M737.5,670c-2.5-1.4-3.5-2.4-6.3-2.1
		c-2.8,0.3-5.8,1.5-8.6,2.1H737.5z M732.7,666.6c-1.5-2.8-2-1.9-5.1-1.1c-2.8,0.7-5.7,1.1-8.6,1.5c-5.7,0.7-11.5,1.3-17.3,0.9
		c-5.5-0.4-11.1-1-16.4-2.5c-4.7-1.3-7.7-2.5-12.5-1.3c5.8,3,12.5,5.1,18.9,6C705.1,670,719.9,671.8,732.7,666.6z M687.1,670
		c-5-1.2-9.5-3.4-14.3-5c-1.9-0.6-11.8-1.9-12.4,0.1c3.9,2.5,8.9,3.6,13.3,4.9L687.1,670L687.1,670z M625.8,670
		c-7.4-0.8-14.6-2.5-22-3.7c-5.9-0.9-12,2.6-17.9,3.7H625.8z M543.4,670c18.8,0,37.7,2,55.7-4.6c-3.9-1.9-8-0.2-12.1,0.4
		c-4.7,0.6-9.4,1.3-14.1,1.2c-10.3-0.2-20.9-2.2-30.9-4.5c-13.7-3.2-43.2-12.3-48.6,7.4C510.1,670,526.7,670,543.4,670z
		 M489.1,671.3c0,0,4.7-7.5,9.4-10.7c4.8-3.2,9.1-3.3,12.8-3.7c3.8-0.4,8.2,0.6,11.1,0.1c-10.2-3.8-23-0.5-33.3,2.1L489.1,671.3z
		 M489.1,658.6c11.8-3,24-4.8,36.2-5.6c5.9-0.4,10.4-0.7,16.3-0.3c2.7,0.2,6.6,0.5,10.2,0.8c3.6,0.3,11,1.2,8.5,0.1
		c-21.3-4.6-47.5-6.8-71.3-5.4V658.6z M489.1,647.7c29.7-2.9,61.3,1.7,89.9,9.9c14.9,4.3,29.7,8.5,45.2,10.6
		c7.6,1,15.1,1.5,22.7,1.5c3.8,0,7.6-0.1,11.4-0.2c2-0.1,6.8,0.6,8.3-0.7c-7.6-2.4-16-0.6-23.8-1.1c-7.1-0.5-14.3-1.7-21.3-2.6
		c-14.7-2.1-29-5.5-43.5-9c-14.8-3.6-29.8-8.3-44.8-10.7c-14.6-2.3-29.5-1.2-44.1,1.3L489.1,647.7L489.1,647.7z M489.1,645.6
		c14.8-2.6,29.8-3.1,44.6-0.9c14.3,2.1,28.6,6.7,42.7,10.1c27.1,6.5,56.2,14.4,84.3,11.9c-0.6-1.5-17.1-1.4-19.3-1.7
		c-7.2-0.8-14.5-1.8-21.7-3.1c-15.2-2.6-30.6-4.9-45.4-9.5c-13.9-4.3-27.5-10.1-41.8-13.1c-14.5-3.1-28.8-4.5-43.5-3.7L489.1,645.6
		L489.1,645.6z M489.1,634.5c9.6-0.7,18.7-0.3,28.2,1.2c5,0.8,9.9,1.7,14.8,2.7c4.1,0.8,9.1,3,13.2,2.6c-9.1-3.8-19-6.3-28.6-8.3
		c-9-1.9-18.4-4-27.7-4L489.1,634.5L489.1,634.5z M489.1,628.1c23.2,0.1,46.4,8.8,68.2,15.6c22.2,6.9,43.7,7.6,66.3,1.9
		c9.8-2.5,18.3-7.2,25.8-14c8-7.3,15.8-14.6,25.3-20c19.7-11.1,43.1-16,65.6-13.7c12.7,1.3,25.2,5,37,9.7c5.5,2.2,11.2,4.6,16.2,7.9
		c2.8,1.9,3.3,2.3,6.5,1.5c2.4-0.6,4.8-1.3,7.2-2c-8.4-6.6-20-10.9-30-14.5c-8.6-3.1-17.3-5.4-26.1-7.6c-22.3-5.6-44.6-6.9-66.2,2.2
		c-10.6,4.4-18.2,12.5-26.4,20.2c-8.9,8.3-18.2,16.2-28.8,22.4c-20.5,11.9-41.4,12.6-63.9,6.6c-6.3-1.7-12.6-3.2-18.6-5.9
		c-5.7-2.6-11.3-5.6-17.2-7.8c-12.9-4.8-27.3-7-41.1-6.5L489.1,628.1L489.1,628.1z M1001.7,600.3c2.8,6.4,10.1,8,16.5,8.3
		c-7.2,3.7-18.7,1.7-21.6-7c-2.9-9,10.1-16.4,13.3-12.4C1004.1,586.8,998.5,593.1,1001.7,600.3z M996.6,593.9
		c-3.6,6.6,0.6,12.1,6,15.6c-7.7-1.1-11.7-11.2-8.3-17.6c3.6-6.8,19.1-10.6,18-2.3C1009.3,583.9,999.1,589.4,996.6,593.9z
		 M1015.6,590.1c-0.2,0.5-0.5,0.9-1,1.1c1.4-15.6-20.7-7-23.2,3.6c-1.3,5.7,1.8,11.8,6.7,14.7c6.4,3.7,13,3.2,20,2.2
		c-10.2,16.4-31.5,1.2-31.8-14c-0.2-8.2,5.4-17,13.4-19.4C1007,576.3,1019.1,580.6,1015.6,590.1
		C1015.5,590.3,1016.3,588,1015.6,590.1z M997,619.4c-4.4-2.1-7.7-6.4-9.2-10.9c5.4,7.8,12.6,11.8,22.4,11
		C1008.4,623.1,999.7,620.7,997,619.4z M1016.3,583.4c-4-6.3-13.2-8.3-20.6-4.2c-5,2.7-9.1,9.3-10.1,15.1
		c-1.1,6.7,0.5,15.4,4.7,20.7c4.4,5.5,10.6,6.7,17.2,7.4c-5.4,3.5-14.7,0.2-19.2-3.4c-5.4-4.4-8.1-11.7-8.2-18.5
		c-0.2-12.1,11.7-25.7,23.8-26.1C1010.5,574.2,1017.9,581.4,1016.3,583.4z M988.8,622.2c-4.9-2.7-7.7-8-8.6-13.5
		c4.8,12.2,13.7,16.7,25.1,15.4C1004.8,625,997.6,627.1,988.8,622.2z M977.7,584.4c5.1-6.9,13.4-12.3,22.2-11.2
		c-6.8,3.3-11.2,5.8-15.9,12c-4.6,5.9-5.5,13.2-5.1,20.5c0.3,5.8,2.4,11.2,6.7,15.1c2.5,2.2,5.6,3.9,8.8,4.7c1.9,0.5,7,0.4,7.8,1
		c-7.7,3.6-13.1,3.5-18.2,0.2c-4.3-2.7-12.3-9.3-12.4-14.5C971.7,597.7,971.4,592.9,977.7,584.4z M967,632.4c-1.3-0.5-2.7-1-4-1.7
		c0.1-2.7,17.6-5.6,19.9-2.7c-2.9,0.4-5.7,0.7-8.6,1.4C972.9,629.9,968.3,632.9,967,632.4C965.7,631.9,967.3,632.5,967,632.4z
		 M968.9,633.2c2.4-2.8,14.6-5.3,17.7-3.6c-4.1,1-8,2-11.8,4C972.8,634.7,970.9,634.2,968.9,633.2z M976.9,634.2
		c1.8-1.9,10.9-4.2,13.9-3.6C990.8,633.5,979.1,634,976.9,634.2z M1001.3,638.1c-2.8,2.2-5.1,5.1-5.1,5.1s-0.8,0.3-1.7,0
		c-0.9-0.3-1-0.6-1-0.6S998.6,639.3,1001.3,638.1z M1024.6,647.2c1.7-1,6.3-1.9,9.1-1.6C1030.7,646.6,1027.7,646.8,1024.6,647.2z
		 M1038,644.5c-1.8,0.6-4.4,0.1-6.4,0.3c-1.9,0.2-3.9,0.9-5.8,0.9c2.2-1.7,14.9-4.3,18.7-3.5C1042.4,642.8,1040.2,643.7,1038,644.5
		C1037.7,644.6,1040.2,643.7,1038,644.5z M1027.8,643.8c-5.2,1.6-8.6,3.5-14.1,3.1c4.3-3.3,27.3-8,31.8-6.3
		C1044.8,640.7,1033.2,642.3,1027.8,643.8z M1051.3,638.7c-4.7,2.1-10.3,0.6-15.5,1.4c-4.9,0.8-9.9,1.7-14.6,3.1
		c-2.7,0.8-7.8,3.8-12.2,3c7.6-6.6,17.4-11.1,26.2-13.4c9.4-2.5,21.2-5.5,30.9-4C1065.8,629.2,1056.2,636.4,1051.3,638.7z
		 M1068.9,627c-2.6,1.3-6,0.4-8.9,0.7c-7.9,0.6-16,2-23.6,4c-6.7,1.8-14.3,3.8-20.1,7.7c-5,3.4-10,10-16.6,4.8
		c10.9-8.6,23-15.6,36.4-19.3c13.5-3.8,29.1-8.1,43.2-6.7c-0.6,0.6-0.8,1-1.2,1.3C1075,621.9,1072.2,625.4,1068.9,627z
		 M1072.1,617.3c-4.3,0.3-8.7,0.7-13,1.4c-7.8,1.3-15.7,3.2-23.3,5.3c-7.6,2.1-14.8,5.1-21.6,9.1c-2.1,1.3-15.4,11.4-16.6,10.4
		c3.3-5.6,11.6-9.9,17-13.1c6.9-4.1,14.4-7.1,22-9.8c7.8-2.7,15.7-4.9,23.8-6.4c7.8-1.4,23-0.3,23-0.3s-2,1.9-2.9,2.8
		C1080.2,617.1,1073.9,617.2,1072.1,617.3z M1084.5,612.5c-3.5,1.3-9.5-0.1-13.3,0.1c-11.1,0.4-21.6,2.8-32,6.4
		c-9.8,3.4-24.6,9.6-29,12.6c-2.3,1.6-16.2,10.5-19,10.3c-2.1-0.1-5.2-1.6-7.1-2.5c9.6-2.7,18.5-5.8,26.3-12.1
		c8.3-6.6,15.6-14.2,25-19.4c9.4-5.3,19.1-7.7,29.7-9.1c10.2-1.3,21.8-2.3,31.3,2.5c-0.2,0.3-0.3,0.5-0.5,0.7
		C1092.4,605.3,1088.4,611,1084.5,612.5z M1085.6,597.2c-6.2-0.6-12.6-0.1-18.8,0.7c-12,1.4-23,4-33.5,10.1
		c-9.4,5.4-16.3,13.3-24.8,19.7c-4.5,3.4-9.8,6.2-15.2,7.9c-4.3,1.3-11.9,3.6-16,1.1c10.9-1.5,22-4.4,30.3-12.1
		c8.5-7.9,15.5-17,26.2-22.3c10-4.9,21.5-9.6,32.6-10.7c12.2-1.2,24.7,1.9,36.2,5.8c-1.2,0.8-2.2,1.2-3.1,2
		C1098.2,600.5,1089.5,597.6,1085.6,597.2z M985.2,654.8c3.8,0.4,7.8,0.5,11.5,1.4c2.7,0.7,12.8,2.9,14.9,5
		c-8.4,1.5-20.1,0.4-28.5-0.7c-2.4-0.3-21.5-4-21.2-6.8C963.3,653.6,976.8,654,985.2,654.8z M976.6,663.5
		c-5.8-1.1-11.5-2.5-17.2-4.2c-2.9-0.9-12.1-2.4-13.7-5c3.2-0.5,7.1-1.1,10.3-0.8c3,0.3,5.6,2,8.4,3.2c5.9,2.3,12.2,3.6,18.5,4.5
		c6.7,0.9,13.3,1.9,20,2.3c4.2,0.2,13.1-2.2,16.4,0.6c-2.5,0.4-5,0.9-7.4,1.2c-1.4,0.2-6.8,1.1-13.7,0.9
		C991.2,666,982.6,664.7,976.6,663.5z M995.3,649.4c7.4,1.8,15.8,3.3,22.8,6.4c-7.9-1.2-15.4-3.4-22.8-6
		C995.3,649.6,995.3,649.5,995.3,649.4z M1011.4,651.8c0.4-1.3,16.8,0.9,18.5,1.1c7.4,1.2,14.9,1.3,22.3,1.7
		c13.8,0.8,27.6,0,41.4-0.7c14.3-0.7,28.4-4,41.9-8.5c6.8-2.3,13.2-5.4,20.2-7.4c6.7-2,11.6-0.2,16.8,4.5
		c-21.2-1.3-40.9,11.7-61.6,14.8c-21.3,3.3-43,2.8-64.5,1.9C1041.9,659.1,1022.3,655.8,1011.4,651.8z M1147.1,639.2
		c-6.2,3-12.7,4.9-19.3,6.5C1133.7,641.9,1139.9,639.1,1147.1,639.2z M1114.9,649.1c3.4-5,18.7-10.8,28.2-10.7
		C1133.8,640.3,1115.8,648.8,1114.9,649.1z M1115.7,646.9c-1.6,1.1-9.4,6.1-11.1,3.7c13.7-12.1,29.7-16.2,47.6-13.6
		c0,0.1,0,0.2,0,0.4c-6.7,0.6-12.8,0.1-19.6,1.6C1126.1,640.5,1120.9,643.3,1115.7,646.9z M1116.8,641.3c-7,3.5-12.9,11.3-21.2,10.3
		c16-15,40.1-19.6,61.2-16.1c-3.1,2.2-10.9,0.3-14.4,0.1C1139.5,635.2,1124.4,637.5,1116.8,641.3z M1095.9,662.9
		c-4.2,0.4-8.3,0.9-12.5,0.9c-4.6,0.1-9.1-0.1-13.7-0.4c-3-0.2-9.6-0.1-12.1-1.9c18.5-1.1,37-0.7,55.4-3.3
		c9.3-1.3,18.5-3.7,27.5-6.3c8.1-2.3,15.9-6.4,24.4-7.2c0.1,0.3-29.9,11.3-32.8,12.2C1122.1,660.1,1098.1,662.7,1095.9,662.9z
		 M1138.4,655.7c5.1-2.2,10.3-4.3,15.6-6.2c4.2-1.6,14-5.1,18.5-4.2c-4.9,0.9-12.7,4-17.8,6.1c-5.5,2.2-10.9,4.8-16.6,6.5
		c-8.8,2.7-18,5-29.2,4.7C1109.2,662.6,1129.8,659.5,1138.4,655.7z M1136,666.6c-3.4,0.1-17.3,0-25-2.6c2.7-1.4,8-0.8,11.2-1.3
		c3.9-0.7,7.8-1.6,11.5-2.7c7.9-2.2,15.1-5.6,22.7-8.5c3-1.1,17.7-8.2,19.7-2.8c1.9,5.2-10.9,10.2-14.3,11.3
		c-0.4-2.6,0.3-3.3,3.5-3.8c0.2-5.1-7.1,0.4-7.8,3.4C1156.1,666.4,1139.5,666.5,1136,666.6z M1177.1,653.3c0.7,5.7-4.8,11.1-10,9.9
		c1.9-1.6,3.7-2.9,5.4-4.6C1174,657,1175.4,655.2,1177.1,653.3z M1162.8,661.3c2.8-0.7,5.5-2.1,7.8-3.9c1.1-0.8,4-4.7,5.3-4.3
		c-2.6,3.7-5.5,6.8-9.5,9.2C1164.9,663.2,1164.1,662.9,1162.8,661.3z M1171.7,635.7c7.3,5.4,13,16.1,8.3,25.1
		c-2.3,4.5-7,6.9-11.9,6.1c-4.2-0.7-9.6-4.1-7.8-9.1c0.6,3.1,1,5.3,4.1,6.3c2.1,0.6,4.9,0.4,7-0.2c4.3-1.3,7.1-5.4,7.2-9.9
		c0.3-12.2-13.1-17.9-23.1-19.6c-13.2-2.1-26.2-0.7-38.8,3.8c-6.3,2.2-12.5,5.3-17.9,9.3c-2,1.5-3.7,3.6-6.1,4.4
		c-1.1,0.4-8.3,1-8.6,0.3c6-4.9,15.9-11.2,22.7-15.1C1123.4,627.5,1152.1,621.1,1171.7,635.7z M1078.2,649.3
		c4.4-0.8,8.9-3.2,13.2-3.8c-3.4,2.7-7.2,6.3-11.5,7.3c-5.2,1.2-11.8,0.5-17.1,0.5c-5.5-0.1-10.9-0.2-16.4-0.3
		c-3.7-0.1-12.4,1-15.5-1.2c10.4-2.4,17,1.3,27.6,0.1C1064,651.2,1073.1,650.2,1078.2,649.3z M1223.6,629.3
		c10.6-3.1,22.6-4.3,33.4-1.8c-0.1,0.6-14,0.7-15.6,0.9c-6.2,0.9-12.2,2.2-18.2,3.9c-5.2,1.5-10.4,3.3-15.4,5.3
		c-7.2,2.8-6,4.7-13.6,7.1C1194.9,644.5,1200.1,636.1,1223.6,629.3z M1225.9,627.5c0.1,0.1,0.1,0.2,0.1,0.3
		c-10,2.7-23.8,6.8-31.2,14.7c-0.8-2.2-0.5-3.1,1.2-4.1C1201.4,635,1215.5,628.7,1225.9,627.5z M1194.4,649.9
		c6.2-4.2,13.8-4.9,21.1-4.9c-1,2.2-9.5,3.6-11.8,4.7c-4.8,2.1-9.3,4.8-13.9,7.4C1191.1,654.5,1192,651.5,1194.4,649.9
		C1196.5,648.5,1193.7,650.3,1194.4,649.9z M1212.6,647.7c4-1.4,12.2-4,15.8-0.7c-13.9,1.8-25.3,5.7-37.6,12.4
		c1.6-1.8,3.3-3.4,5.4-4.5C1201,652.3,1207,649.7,1212.6,647.7z M1332,621.5c-3.5,1.2-9.2,3.1-12.9,2.4c-3.8-0.7-8.1-4-10.8-6.6
		c1.2-2.7,12.6,0.1,14.7,0.9C1325.7,619.3,1329.2,620,1332,621.5z M1217.3,595.2c-2.5,3.1-8.6-4.7-9.7-6.6
		c-2.3-4.4-2.8-10.1-0.6-14.6c2.3-4.8,7.3-7.9,12.3-9.1c3.9-1,13.9-0.3,13.2,5.2c-2.8-6.6-12.9-4.8-18.3,0.2
		C1208.9,575.2,1205.3,587,1217.3,595.2z M1214.7,596.6c-1.4,2.6-8.1-4.9-9.1-6.2c-3.2-4.4-3.6-10.2-2.1-15.5
		c2.5-8.8,14-15.5,22.6-11.2c-5.9,0.3-10.8,0.5-15.7,4.6c-5,4.1-6.8,11.1-4.9,17.2C1206.7,589.1,1210.3,593.7,1214.7,596.6z
		 M1233,565.2c0.4,0.8,0.7,1.6,0.4,2.6c-8.3-8.1-20.6-8.4-28.1,1.5c-7.2,9.5-2.8,23.1,7.2,28.5c-4.2,5.2-10.6-7.2-11.6-9.9
		c-2.3-6.6-2.9-13.8,0.4-20.2c2.6-5.2,7.8-8.8,13.5-9.8C1220.8,556.7,1230.3,559.2,1233,565.2C1233.3,565.9,1232.3,563.5,1233,565.2
		z M1232.5,562.1c-8.9-6.6-14.4-5.6-19.4-4.8c-5,0.8-9.7,4.8-12.2,9.5c-5.6,10.3-1.9,24,6.3,31.7c-5,0.2-10.6-6.7-12.8-10.6
		c-3.5-6.1-5.6-13.8-3.8-20.7c1.8-7.1,12.4-14.3,20.5-14.5C1221.9,552.5,1231,557.7,1232.5,562.1z M1207.7,601
		c-7-3.2-12.7-5.1-17-12c-3.6-5.7-5.6-15.1-1.6-21.2c0,14.6,5.1,27.8,20,32.4C1208.9,600.9,1208.4,601.3,1207.7,601
		C1204.5,599.6,1208.4,601.3,1207.7,601z M1209.5,601.6c9.8-7.9,26-11.5,37.3-10.6c-7.1,0.6-17.6,2.9-21.6,5
		c-4.4,2.3-12.7,6.6-12.7,6.6S1210.3,601.9,1209.5,601.6z M1272.6,595.5c9.7,3.3,18.5,8.2,26.4,14.7c6.3,5.2,11.4,10.1,18.7,14.1
		c-3.8,1.7-8.8-3.1-11.9-5c-4.2-2.6-8.5-5.3-12.8-7.8c-8-4.6-16.4-8.2-25.4-10c-9.4-1.8-18.8-2.6-28.2-0.9
		c-4.9,0.9-10.2,2.6-14.7,4.7c-2.4,1.1-2,1.3-4.4,0.9c-2.1-0.4-5.5-2.5-6.4-2.9C1224.4,594.9,1252.7,588.7,1272.6,595.5z
		 M1222.6,607.1c14.1-7.7,33.5-7.8,48.7-3.7c15.1,4,28.9,12.9,41.7,21.5c-5,2.1-14.7-7.1-18.8-9.4c-6.6-3.6-13.8-7.1-21.3-8.4
		c-7.8-1.3-15.3-1.7-23.1-0.4c-3.7,0.6-7.6,1.2-11.2,2.3c-3,0.9-5.4,1.8-8.5,2.4C1228.3,610.2,1224.9,608.3,1222.6,607.1z
		 M1274.2,608.1c12.8,2.6,22.9,10.9,34,17c-5.3,1.3-8.6-3.4-13.3-5.2c-6.6-2.6-18.5-6.6-25.5-7.6c-6.5-1-14.7-3.2-29.5,0
		c-1.5,0.3-5.5,2.2-7.7,0.1C1240.1,609.1,1259.8,605.1,1274.2,608.1z M1242.1,613.1c8.5-2.9,21.1-1.2,29.8,0.5c5,1,9.8,2.6,14.6,4.4
		c4.1,1.5,11.2,3.1,14.1,6.4c-10.7,0-22.2-5.7-32.4-8.5C1261.9,614.2,1250.9,612.2,1242.1,613.1z M1259.9,619.1
		c-5.7-0.9-16.8-0.7-22-3.1c0.7-3.2,35.5,1.4,38,5.4C1275.6,621.3,1266.2,620.1,1259.9,619.1z M1236.5,616.6
		c-2.1,0.2-4.2,0.4-6.3,0.5c2-0.9,4-1.8,6.3-1C1236.5,616.3,1236.5,616.4,1236.5,616.6z M1276.3,623.2c7.3,1.2,14.5,3.3,21.9,4.1
		c4,0.5,8.1,0.4,12.1,0.1c2.3-0.2,7.5-2,9.6-0.9c-21.2,9.5-42.2,2.8-63.8-0.2c-21.5-2.9-41.5,1.4-60.6,11.4
		c-0.8-2.7-1.1-2.5,0.4-4.4c0.9-1.1,3.2-2.3,4.4-3.1c3.3-2.1,6.6-4.3,10.1-5.9c7.1-3.3,11.2-4.6,22.9-5.9
		C1244.8,616.9,1262.6,620.8,1276.3,623.2z M1196.7,616.1c0.5-0.5,10.2,6.8,12.2,7.5c-1.3,0.6-2.5,1.1-3.8,1.7
		C1202.3,622.2,1199.5,619.2,1196.7,616.1z M1202.4,613.4c-6.3-3.9-12.2-7.9-18.7-11.3c6.5,0.4,33.2,10.7,38.2,16.1
		C1218.8,620.2,1206.9,616.2,1202.4,613.4z M1195.1,609.3c3.3,2.2,6.4,4.6,9.9,6.4c3.7,1.9,8.1,2.5,11.6,4.6
		c-5.5,2.4-8.3,2.5-13.4-1c-4.7-3.3-8.8-7.1-13.4-10.4c-9.4-6.8-19.5-7.1-30.7-8.1c4.2-1.2,8.5-1.8,12.9-0.9
		C1178.4,600.9,1187.9,604.6,1195.1,609.3z M1189.8,610.2c-4.1-2.4-8.5-4.4-13-6.1C1181.9,604.4,1185.9,607.3,1189.8,610.2z
		 M1162.7,598.3c-6.6,2.3-10.4,0.3-17.3,0.5C1144.8,597.9,1160.9,598.3,1162.7,598.3z M1151.1,600.3c-9.6,0.9-18.5,2.3-27.9,4.4
		c4.6-3.4,10.9-4.9,16.5-5C1143.4,599.7,1150.2,598.9,1151.1,600.3z M1123.8,603.1c-5,3.5-10.8,5.2-16.7,6.4
		C1112.4,606.6,1118,604.6,1123.8,603.1z M1112.9,609.3c-8.5,5.2-15.9,11.8-24.6,18.6c4.3-5.6,9.4-11.1,12.2-13.7
		C1102,612.8,1108.3,609.8,1112.9,609.3z M1097,615.6c0.7,1.1-8.1,9.5-9.2,10.7c-3.7,3.8-7,6.4-11.9,8.4c2-2.7,5.2-5.1,7.4-7.7
		c2.5-2.9,5-5.5,8.1-7.7C1093,618.3,1095.1,616.7,1097,615.6z M1081.4,628c-2.1,2.5-4.3,4.6-7.1,6.4
		C1075.1,632.7,1079.7,628.6,1081.4,628z M1077.7,635c0.1,0.1,0.2,0.2,0.2,0.3c-4.1,3-9.5,8-14.8,7.6
		C1067.7,639.2,1072.7,637.2,1077.7,635z M1078.2,640.9c-1,0.2-5.2,1.2-5.6,0.4c10-6.6,18.7-15.1,28.2-22.3
		c10.3-7.9,20.5-13.3,33.4-15.8c25.7-5.1,54,0.4,69.9,22.7c-3.5,2.4-6.8,4.8-10.1,7c-5.8-9.6-12.5-18.2-23-23
		c-10.7-4.9-22.8-5.1-34.1-3.1c-11.3,2-21.8,7.4-31,14.1c-4.3,3.2-8,7-12.2,10.4C1089.4,634.6,1084,640,1078.2,640.9
		C1076.4,641.1,1078.9,640.8,1078.2,640.9z M1084.7,639.4c18.8-15.2,36.6-32.4,62.3-32.8c11.8-0.2,24.4,2.8,33.2,11.2
		c3.9,3.7,8.4,8.1,10.5,13c1.6,3.7,1.6,7.6,1.9,11.5c-0.1,0-1.3-6.1-3-8.8c-2.6-4.4-7-9.2-11.2-12.2c-8.9-6.3-21.3-9.8-32.1-9.7
		c-11.2,0.1-22.7,5-32.1,10.7c-9.5,5.7-17.2,15.2-28.7,17.1C1085.2,639.5,1085,639.5,1084.7,639.4z M1134.9,614.3
		c14.1-3.5,27.1-0.6,40.1,5.7c-0.2,0.4-9.3-3.1-17.4-3.4s-13.9,0.1-20.3,2.1c-12.8,3.8-24.8,10.6-36.5,15.7
		C1102.4,631.2,1123,617.2,1134.9,614.3z M1187.3,638.8c-13.3-26-46.3-19.2-68.8-11.4c-0.1-0.1-0.1-0.2-0.1-0.3
		c16.1-7.7,33.3-12.6,51.1-7.8c12.8,3.5,28,18.8,20.3,33.1C1189.7,647.8,1188.8,641.8,1187.3,638.8z M1192.5,667.9
		c2-2,5.5,0.4,5.5,0.4S1194.3,668.1,1192.5,667.9z M1235.7,666.6c-12.2,3.5-26.8,3.1-38.8-0.7c3.7-3.5,11.4-0.5,16.1-0.6
		C1220.4,665.2,1231.7,664.9,1235.7,666.6z M1203.2,663.5c5-3.6,21.9-3.2,28.2,0.8C1224.5,663.7,1211.8,666.3,1203.2,663.5z
		 M956.8,628.5c2-1.2,8.8-2.3,12.1-2c-1.7,1.3-7.8,3.7-9.7,2.8C958.4,629,957.6,628.8,956.8,628.5z M915.5,619
		c10.3-0.8,20.5,0.8,30.7,2.6c10.6,2,22.1,5,32.8,2.6c-0.8-0.9-1.6-2.2-2.5-2.9c-1.6-1.2-0.8-0.7-2.7-0.9c-2.5-0.2-5.5,0.5-8,0.6
		c-6,0.3-11.9,0-17.9-1.1c-10.5-2-24.7-6.1-29.1-4.4C914.2,617.2,915.5,619,915.5,619z M941.4,618.1c7.7,2,23.8,3.9,32.9,1.2
		c-1.4-1.7-12.4,0.1-14.8-0.2c-4.8-0.5-9.7-1.6-14.4-2.7c-9.6-2.3-45.5-11.9-73.2-8.3c-1.6,0.2,5.7,5.6,7.4,5.9
		c3.6,0.5,8.4-1.2,12.2-1.2C900.3,612.7,924.6,613.6,941.4,618.1z M946.2,615.9c8.1,1.9,15.6,3,26.8,1.8c-1.7-2.1-3.2-4.1-3-8.1
		c-13.6,6.9-48.8-2.4-53.9-3.3c-5.1-0.9-12.7-3.5-16.9-4c-7.9-0.9-15.5,0.2-25.2,4.6C900.5,602.8,936.2,613.5,946.2,615.9z
		 M1248,670c-3.1-1-5.7-1.9-8.9-1.6c-3.2,0.3-6.4,1.2-9.6,1.5c-2.3,0.2-4.7,0.2-7.1,0.2c-7.6,0-14-0.2-21.4-1.8
		c0,0.1-0.1,0.1-0.1,0.2c1.6,0.7,3.1,1.1,4.7,1.6c-5.7,0-12.6-2.3-17.9,0L1248,670L1248,670z M1198.2,662.6
		c8.5-3.1,16.4-3.6,25.3-3.6c-17.2-3.4-30.5,2.9-45.1,11.1C1185.3,670,1191.8,664.9,1198.2,662.6z M1173.9,670
		c15.8-3,18.4-23.2,10.7-34.6c-9.1-13.3-27.9-15.5-42.7-13.6c-17.9,2.3-33.8,12.4-51,17.4c-16.2,4.7-33.6,4.9-49.3,10.8
		c8,2.2,17.9,1.1,26,0.2c8.3-1,16.7-2.4,24.3-5.8c7.8-3.5,14.7-8.6,22.5-12.2c8-3.6,16.4-5.9,25.3-6c15.8-0.3,36.4,4.3,41.8,21.4
		c2.2,6.9,1.6,15.4-5.5,19.2c-5.9,3.2-16.3,0.5-17-7.1C1156.8,668.9,1167.6,670,1173.9,670z M1164.3,670c-2.5-1.4-3.5-2.4-6.3-2.1
		c-2.8,0.3-5.8,1.5-8.6,2.1H1164.3z M1159.5,666.6c-1.5-2.8-2-1.9-5.1-1.1c-2.8,0.7-5.7,1.1-8.6,1.5c-5.7,0.7-11.5,1.3-17.3,0.9
		c-5.5-0.4-11.1-1-16.4-2.5c-4.7-1.3-7.7-2.5-12.5-1.3c5.8,3,12.5,5.1,18.9,6C1132,670,1146.7,671.8,1159.5,666.6z M1113.9,670
		c-5-1.2-9.5-3.4-14.3-5c-1.9-0.6-11.8-1.9-12.4,0.1c3.9,2.5,8.9,3.6,13.3,4.9L1113.9,670L1113.9,670z M1052.7,670
		c-7.4-0.8-14.6-2.5-22-3.7c-5.9-0.9-12,2.6-17.9,3.7H1052.7z M970.2,670c18.8,0,37.7,2,55.7-4.6c-3.9-1.9-8-0.2-12.1,0.4
		c-4.7,0.6-9.4,1.3-14.1,1.2c-10.3-0.2-20.9-2.2-30.9-4.5c-13.7-3.2-43.2-12.3-48.6,7.4C936.9,670,953.6,670,970.2,670z
		 M914.5,670.2c4.9-1.2,6.1-6.4,10.9-9.5c4.8-3.2,9.1-3.3,12.8-3.7c3.8-0.4,8.2,0.6,11.1,0.1c-10.2-3.8-23-0.5-33.3,2.1
		c0,0-17.2,6.1-22.9,6.5C887.4,666.1,909.6,671.5,914.5,670.2z M878.7,658c-14.1,3.4-28.1,1.7-42.1-1.4c-12.3-2.8-25-9.5-37.8-8.4
		c-13,1.1-31,10.3-36.3,13.4c-1.8,1.1-1.3,1.5-1.3,1.5s12.5-5.1,19.7-5.6c7.2-0.5,14.5,0.2,21.7,1.4c13.9,2.5,27.5,6.2,41.6,7.6
		c14.2,1.4,27.8,0.7,42-1c7.1-0.8,14.2-2.1,20.9-4.3c1.8-0.6,8.8-2.5,8.8-2.5c11.8-3,24-4.8,36.2-5.6c5.9-0.4,10.4-0.7,16.3-0.3
		c2.7,0.2,6.6,0.5,10.2,0.8c3.6,0.3,11,1.2,8.5,0.1c-21.3-4.6-47.9-7.1-71.3-5.4C892.5,649.8,891.3,654.8,878.7,658z M916.5,647.4
		c29.7-2.9,60.7,2,89.3,10.3c14.9,4.3,29.7,8.5,45.2,10.6c7.6,1,15.1,1.5,22.7,1.5c3.8,0,7.6-0.1,11.4-0.2c2-0.1,6.8,0.6,8.3-0.7
		c-7.6-2.4-16-0.6-23.8-1.1c-7.1-0.5-14.3-1.7-21.3-2.6c-14.7-2.1-29-5.5-43.4-9c-14.8-3.6-29.8-8.3-44.8-10.7
		c-19.8-3.1-41.6,0.2-45.3,1.2C911,647.5,916.5,647.4,916.5,647.4z M905.6,642c-2.2,3-8.7,6.9-8.4,6.8c5-0.7,19-3.3,19-3.3
		c14.8-2.6,29.5-2.9,44.4-0.8c14.3,2.1,28.6,6.7,42.7,10.1c27.1,6.5,56.2,14.4,84.3,11.9c-0.6-1.5-17.1-1.4-19.3-1.7
		c-7.2-0.8-14.5-1.8-21.7-3.1c-15.2-2.6-30.6-4.9-45.4-9.5c-13.9-4.3-27.5-10.1-41.8-13.1c-14.5-3.1-40.1-4.1-43.5-3.7
		C912.5,636.1,907.8,638.9,905.6,642z M913,635.1c3.7-0.9,21.5-0.9,31.1,0.5c5,0.8,9.9,1.7,14.8,2.7c4.1,0.8,9.1,3,13.2,2.6
		c-9.1-3.8-19-6.3-28.6-8.3c-9-1.9-25.3-4.7-27.3-3.6C914.4,630.2,915.8,631.8,913,635.1z M915.9,628.1c12.3-2.7,46.4,8.8,68.2,15.6
		c22.2,6.9,43.7,7.6,66.3,1.9c9.8-2.5,18.3-7.2,25.8-14c8-7.3,15.8-14.6,25.3-20c19.7-11.1,43.1-16,65.6-13.7
		c12.7,1.3,25.2,5,37,9.7c5.5,2.2,11.2,4.6,16.2,7.9c2.8,1.9,3.3,2.3,6.5,1.5c2.4-0.6,4.8-1.3,7.2-2c-8.4-6.6-20-10.9-30-14.5
		c-8.6-3.1-17.3-5.4-26.1-7.6c-22.3-5.6-44.6-6.9-66.2,2.2c-10.6,4.4-18.2,12.5-26.4,20.2c-8.9,8.3-18.2,16.2-28.8,22.4
		c-20.5,11.9-41.4,12.6-63.9,6.6c-6.3-1.7-12.6-3.2-18.6-5.9c-5.7-2.6-13.4-6.7-19.3-8.9c-12.9-4.8-33.8-6.1-33.8-6.1
		s11.6-0.2,20.2,1.7s9.5,2.6,13.3,2.6c2.4-0.1,8.8-1,10.7-2.1c-16.3-2.4-42.5-7.7-50.5-5.4c-3.7,1-10.6,2.8-16.2,5.1
		c-5.2,2.1-10.3,4.3-15.8,5.6c-10.4,2.5-21.3,1.9-31.9,0.4c-12.6-1.8-24.6-3.9-37.3-2c-11.8,1.8-23.1,5.4-34.1,9.9
		c-1.8,0.7,3.5-1.4,0,0c-1.8,0.7-3.4,1.7-4.8,3.3c13.1-2.6,25.6-5.2,39.1-5.3c13.1-0.2,26.3,2.3,39.4,3.8
		c13.2,1.6,26.5,2.4,39.6-0.5c5.8-1.3,12.3-3.4,17.6-6.1C912.6,633,913.3,628.6,915.9,628.1z M901.3,615.6c4.6,0.9,8.8,2.1,9.4,2.3
		c1.1,0.3,2.8,1.3,3.5-0.4c0.7-1.7,3.5-2.8,2.1-2.8c-1.4-0.1-3.4-0.3-9.8-0.7c-6.4-0.5-14.4-0.2-16,0.1
		C890.4,614.1,896,614.7,901.3,615.6z M1218.3,642.6c-1.9-0.3-3.9-0.5-5.8-0.9v-0.3c8.3-1.7,10.2,0.4,18.7,0.6
		c7.1,0.2,25.1,3.1,34.3,4.1c8.2,0.9,16.6,1.7,24.9,1.9c4.2,0.2,8.4,0,12.7-0.3c2.5-0.2,10.3-2.3,12.5-1.2
		c-14.4,5.2-32.3,3.6-47.3,2.3C1251.4,647.3,1234.9,645.4,1218.3,642.6C1216.8,642.4,1223.9,643.6,1218.3,642.6z M1276.4,656.5
		c-5.9-1-11.8-2.7-17.6-4.3c-2.8-0.8-5.7-1.5-8.6-2.3c-2.3-0.6-8.1-1.1-9.7-2.8c6.5-0.6,14,1.2,20.5,1.9c7.9,0.8,15.6,1.3,23.5,1.4
		c8.1,0.2,16,0,24-1.3c2.3-0.4,18.2-5.8,19-4.7c-4.5,4-9.9,7-15.7,8.6C1306.6,654.4,1288.6,658.6,1276.4,656.5z M1303.5,657.8
		c-6.5,0.8-18.1,1.8-24.6,0.9c-6.8-0.9-13.6-2.5-20.2-4.1c-5.8-1.4-18.1-5.4-19.8-6.5c-1.7-1.1,27,7.9,39.8,9.5
		c13,1.6,24.9-1.8,37.3-5.1C1317.5,653.5,1308.7,657.2,1303.5,657.8z M1272.4,646.2c-7.8-0.7-15.4-1.9-23.1-2.9
		c-4.4-0.6-8.8-1.1-13.2-1.7c-3.2-0.4-10,0.2-12.7-1.8c20.2-2.2,39.7,0.3,59.8,2.2c10.1,1,20.4,1.6,30.5,0.1
		c2.5-0.4,23.5-6.5,23.7-6.2c-4.8,3.9-10.9,5.9-16.7,7.7C1317.4,644.7,1288.6,647.8,1272.4,646.2z M1332.1,621.5
		c-3.5,1.2-9.2,3.1-12.9,2.4c-3.8-0.7-8.1-4-10.8-6.6c1.2-2.7,12.6,0.1,14.7,0.9C1325.8,619.3,1329.3,620,1332.1,621.5z M1314.3,615
		c8.7-0.1,16.2,1.3,24.5,4.3c-0.1,3.7-9.6-0.3-11-0.8C1323.4,616.8,1318.7,616.6,1314.3,615z M1303.4,667.9c0-0.2,0-0.3,0-0.5
		c-10,0.4-19.7,1.3-29.8,0.8c-10.5-0.6-20.5-2.4-30.8-4.3c1.7,1.9,11.3,3.4,14,3.9c4.6,0.9,11.2,1.9,15.8,2.3
		C1283.2,670.1,1292.8,669.8,1303.4,667.9z M1264.8,670.1c-11.7-1.5-22.8-6.1-34.5-7.6c2.1,2.4,8.2,2.9,11,3.7
		c4.5,1.2,9,2.6,13.6,3.5C1258.1,670.3,1261.4,670.1,1264.8,670.1z M1342.4,619c10.3-0.8,20.5,0.8,30.7,2.6c10.6,2,22.1,5,32.8,2.6
		c-0.8-0.9-1.6-2.2-2.5-2.9c-1.6-1.2-0.8-0.7-2.7-0.9c-2.5-0.2-5.5,0.5-8,0.6c-6,0.3-11.9,0-17.9-1.1c-10.5-2-24.7-6.1-29.1-4.4
		C1341.1,617.2,1342.4,619,1342.4,619z M1368.3,618.1c7.7,2,23.8,3.9,32.9,1.2c-1.4-1.7-12.4,0.1-14.8-0.2
		c-4.8-0.5-9.7-1.6-14.4-2.7c-9.6-2.3-45.5-11.9-73.2-8.3c-1.6,0.2,5.7,5.6,7.4,5.9c3.6,0.5,8.4-1.2,12.2-1.2
		C1327.2,612.7,1351.5,613.6,1368.3,618.1z M1373.1,615.9c8.1,1.9,15.6,3,26.8,1.8c-1.7-2.1-3.2-4.1-3-8.1
		c-13.6,6.9-48.8-2.4-53.9-3.3c-5.1-0.9-12.7-3.5-16.9-4c-7.9-0.9-15.5,0.2-25.2,4.6C1327.4,602.9,1363.1,613.5,1373.1,615.9z
		 M1341.4,670.3c4.9-1.2,6.1-6.4,10.9-9.5c4.8-3.2,9.1-3.3,12.8-3.7c3.8-0.4,8.2,0.6,11.1,0.1c-10.2-3.8-23-0.5-33.3,2.1
		c0,0-17.2,6.1-22.9,6.5C1314.3,666.1,1336.5,671.5,1341.4,670.3z M1305.5,658c-14.1,3.4-28.1,1.7-42.1-1.4
		c-12.3-2.8-25-9.5-37.8-8.4c-13,1.1-31,10.3-36.3,13.4c-1.8,1.1-1.3,1.5-1.3,1.5s12.5-5.1,19.7-5.6c7.2-0.5,14.5,0.2,21.7,1.4
		c13.9,2.5,27.5,6.2,41.6,7.6c14.2,1.4,27.8,0.7,42-1c7.1-0.8,14.2-2.1,20.9-4.3c1.8-0.6,8.8-2.5,8.8-2.5c11.8-3,24-4.8,36.2-5.6
		c5.9-0.4,10.4-0.7,16.3-0.3c2.7,0.2,6.6,0.5,10.2,0.8c3.6,0.3,11,1.2,8.5,0.1c-21.3-4.6-47.9-7.1-71.3-5.4
		C1319.4,649.8,1318.2,654.9,1305.5,658z M1343.4,647.4c29.7-2.9,60.7,2,89.3,10.3c14.9,4.3,29.7,8.5,45.2,10.6
		c7.6,1,15.1,1.5,22.7,1.5c3.8,0,7.6-0.1,11.4-0.2c2-0.1,6.8,0.6,8.3-0.7c-7.6-2.4-16-0.6-23.8-1.1c-7.1-0.5-14.3-1.7-21.3-2.6
		c-14.7-2.1-29-5.5-43.5-9c-14.8-3.6-29.8-8.3-44.8-10.7c-19.8-3.1-41.6,0.2-45.3,1.2C1337.9,647.5,1343.4,647.4,1343.4,647.4z
		 M1332.4,642c-2.2,3-8.7,6.9-8.4,6.8c5-0.7,19-3.3,19-3.3c14.8-2.6,29.5-2.9,44.4-0.8c14.3,2.1,28.6,6.7,42.7,10.1
		c27.1,6.5,56.2,14.4,84.3,11.9c-0.6-1.5-17.1-1.4-19.3-1.7c-7.2-0.8-14.5-1.8-21.7-3.1c-15.2-2.6-30.6-4.9-45.4-9.5
		c-13.9-4.3-27.5-10.1-41.8-13.1c-14.5-3.1-40.1-4.1-43.5-3.7C1339.4,636.1,1334.7,639,1332.4,642z M1339.9,635.2
		c3.7-0.9,21.5-0.9,31.1,0.5c5,0.8,9.9,1.7,14.8,2.7c4.1,0.8,9.1,3,13.2,2.6c-9.1-3.8-19-6.3-28.6-8.3c-9-1.9-25.3-4.7-27.3-3.6
		C1341.3,630.2,1342.7,631.8,1339.9,635.2z M1342.8,628.1c12.3-2.7,46.4,8.8,68.2,15.6c22.2,6.9,43.7,7.6,66.3,1.9
		c9.8-2.5,18.3-7.2,25.8-14c8-7.3,15.8-14.6,25.3-20c19.7-11.1,43.1-16,65.6-13.7c12.7,1.3,25.2,5,37,9.7c5.5,2.2,11.2,4.6,16.2,7.9
		c2.8,1.9,3.3,2.3,6.5,1.5c2.4-0.6,4.8-1.3,7.2-2c-8.4-6.6-20-10.9-30-14.5c-8.6-3.1-17.3-5.4-26.1-7.6c-22.3-5.6-44.6-6.9-66.2,2.2
		c-10.6,4.4-18.2,12.5-26.4,20.2c-8.9,8.3-18.2,16.2-28.8,22.4c-20.5,11.9-41.4,12.6-63.9,6.6c-6.3-1.7-12.6-3.2-18.6-5.9
		c-5.7-2.6-13.4-6.7-19.3-8.9c-12.9-4.8-33.8-6.1-33.8-6.1s11.6-0.2,20.2,1.7s9.5,2.6,13.3,2.6c2.4-0.1,8.8-1,10.7-2.1
		c-16.3-2.4-42.5-7.7-50.5-5.4c-3.7,1-10.6,2.8-16.2,5.1c-5.2,2.1-10.3,4.3-15.8,5.6c-10.4,2.5-21.3,1.9-31.9,0.4
		c-12.6-1.8-24.6-3.9-37.3-2c-11.8,1.8-23.1,5.4-34.1,9.9c-1.8,0.7,3.5-1.4,0,0c-1.8,0.7-3.4,1.7-4.8,3.3
		c13.1-2.6,25.6-5.2,39.1-5.3c13.1-0.2,26.3,2.3,39.4,3.8c13.2,1.6,26.5,2.4,39.6-0.5c5.8-1.3,12.3-3.4,17.6-6.1
		C1339.5,633,1340.2,628.7,1342.8,628.1z M1328.2,615.6c4.6,0.9,8.8,2.1,9.4,2.3c1.1,0.3,2.8,1.3,3.5-0.4c0.7-1.7,3.5-2.8,2.1-2.8
		s-3.4-0.3-9.8-0.7c-6.4-0.5-14.4-0.2-16,0.1C1317.3,614.1,1322.9,614.7,1328.2,615.6z"/>
</g>
</svg>
