<?xml version="1.0" encoding="utf-8"?>
<svg xmlns="http://www.w3.org/2000/svg" xmlns:xlink="http://www.w3.org/1999/xlink" viewBox="240 800 245 195">
<g class="logo_group">
	<path class="logo" d="M481.6,920.8c-1.4-2.3-2.8-4.5-4.2-6.8c0,0.1,0.1,0.3,0.2,0.5l0,0l0,0l0,0v0.1c0,0,0-0.1-0.1-0.1c0,0,0,0-0.1,0v-0.1h0.1
		c-0.1-0.1-0.1-0.2-0.2-0.3c0,0,0,0,0,0.1l-0.1-0.2c-0.2,0.1-0.3,0.2-0.5,0.3c0.2-0.1,0.3-0.2,0.5-0.3c-0.1,0-0.3,0-0.4-0.1
		c-4.8,2.9-9.4,6-14.6,8c-5.2,2-10.7,3.3-16.4,3.5c-11.1,0.3-22.1-3.9-29.4-12.4c-14.1-16.3-11.3-39.7-11.2-59.7c0-2,0-3.9-0.1-5.9
		c-0.1-3.1-0.4-6.6-1.7-9.5c-1.2-2.7-3.5-4.5-6.5-4.6c-3-0.1-5.2,1.7-6.9,4.1l0,0c-0.3,0.4-0.4,0.6-0.9,1.2l0,0l-0.1,0.1
		c1.5,1,3,2.1,4.4,3.1c0.8,0.6,2,1.2,2.7,1.9c0.2,0.2,0.2,0.4,0.2,0.7c0.1,1,0.2,2,0.2,3.1c0,1.9,0,3.8-0.1,5.7
		c-0.2,7.7-0.4,15.3-0.2,23c0,2,0.2,4.1,0.3,6.1c0.1,1,0.2,1.9,0.3,2.9c0.1,0.5,0.1,1,0.2,1.5c0,0.2,0.2,0.9,0.1,1.1
		c-3,2.1-6.4,4-10,4.9c-2.4,0.6-5.6,1.3-7.6-0.4l0,0c-2.1-2.3-3-5.6-3.6-8.5c-1.1-5.3-1.1-10.6-1.1-16c0.1-9,0.8-18-0.2-27
		c-0.3-3.1-0.9-6.1-1.7-9.1c-0.4-1.4-0.8-2.8-1.3-4.2c-0.1-0.3-1.5-3.4-1.2-3.6c1.6-1.8,3.1-3.7,4.8-5.5c2.1-2.1,4.4-4.1,6.9-5.6
		c5.2-3.2,11.3-4.5,17.3-4c5.9,0.5,11.5,2.7,16.1,6.4c4.7,3.8,8.1,9.3,10,15c2,6,2.7,12,2.7,18.3c0.1,6.4-0.4,12.9-0.3,19.3
		c0.1,6,0,12,1.1,18c0.7,3.9,2,7.9,4.4,11.1c3.8,5.1,10,5.8,15.8,4.5s11-4.5,15.6-8.1c0.1-0.2-1-1.7-1.1-1.9c-1-1.6-1.9-3.3-2.9-4.9
		l0.1,0.1c0-0.1-0.1-0.1-0.1-0.1c-3.1,2.6-6.6,4.9-10.5,6.1c-1.9,0.6-3.9,1.2-5.9,1.2c-1.2,0-2.8-0.1-3.7-1.1l0,0
		c-1.7-1.8-2.6-4.4-3.2-6.8c-0.6-2.5-1-5.1-1.1-7.7c-0.1-2.4,0.2-4.9,0.2-7.3c0.1-2.8,0.1-5.6,0.2-8.4c0.4-9.7,0.6-19.6-1.6-29.1
		c-2-8.7-6.1-17-12.7-23.1c-7.6-7.1-18.4-11-28.8-10.2c-5,0.4-10,2-14.4,4.5c-2.6,1.4-4.9,3.1-7.1,5c-1.1,1-2.1,2-3.1,3
		s-1.8,2.3-2.9,3.3c-7.3-10.5-19.8-16.1-32.5-15.5c0.1,0.1,0.3,0.1,0.6,0.1c-6.1,0-12.1,1.8-17.4,4.9c-2.6,1.5-4.9,3.3-7.1,5.4
		c-1.9,1.8-3.4,3.9-5.2,5.8c-2.6-3.5-5.5-6.4-8.9-9.1c-4.4-3.5-9.5-5.7-15.1-6.7c-12.2-2.2-24.5,1.9-33.2,10.7
		c-2.8,2.8-5.2,6-7.4,9.3c2.3,1.6,4.5,3.1,6.8,4.7c3.6-5.1,7.6-9.8,13.1-12.9c4.2-2.3,8.9-3.5,13.7-3.6c3.4-0.1,6.9,0.4,10.1,1.3
		c3.3,1,6.5,3,9.2,5.3c4.9,4.3,8,10,10,16.1c2.9,8.8,2.7,17.9,2.6,27c0-0.1,0.1-0.2,0.1-0.4c-0.3,9.4-1.1,19.1,1,28.4
		c0.9,4.2,2.5,8.8,5.7,11.8c1.3,1.3,3,2.4,4.7,3.1c2.1,0.7,4.6,0.8,6.8,0.6c4.9-0.5,9.5-2.4,13.7-4.9c-0.1,0,0.9,2.9,1,3.2
		c0.4,1.3,0.9,2.5,1.4,3.8c0.1,0.1-4.4,2.2-4.9,2.4c-4.5,1.9-9.4,3.2-14.3,3.1c-4.7-0.1-9.3-1.6-12.9-4.7c-3.7-3.1-6-7.5-7.5-12
		c-1.6-4.8-2.1-10-2.3-15c-0.2-5.3-0.3-10.6-0.2-15.9c0.1-9.8,1.2-19.7-2.1-29.1c-1.7-4.8-4.4-9.3-8.5-12.3c-3.9-2.9-8.4-4-13.2-4.2
		c0.1,0.1,0.3,0.1,0.6,0.2c-4.5-0.3-9,1-12.6,3.6c-3.6,2.5-6.3,6-8.8,9.6c0.1,0,0.1,0.1,0.2,0.1l0,0c2.1,1.5,4.2,2.9,6.4,4.4
		c2-2.8,4-5.6,6.9-7.5c4.4-2.9,10.7-2.3,14.9,0.6c4.3,2.9,6.2,8.2,7.1,13.1c0.8,4.5,0.8,9.1,0.8,13.7c-0.1,12.2-1.1,24.5,1.6,36.6
		c2.1,9.4,6.7,18.9,15.5,23.7c2.8,1.5,5.8,2.3,8.9,2.9c3.1,0.6,6.3,0.8,9.5,0.5c6.7-0.6,12.9-2.9,18.8-6l0,0c1.3,2,2.6,4.1,4.3,5.9
		c-5.2,2.9-10.7,5.2-16.5,6.6c0.1,0,0.3,0,0.7,0c-9.5,2.1-19.7,1.6-28.5-3c-3.3-1.7-6.3-3.9-8.8-6.6c-3.3-3.3-5.4-7.1-7.3-11.3
		c-7.3-15.9-5.6-33.8-5.4-50.8c0-2.8,0-5.7-0.3-8.5c-0.3-2.6-0.7-5.5-2.3-7.7c-1.4-1.9-3.5-3-5.9-3.1c-2.9,0-5,1.8-6.7,4l0,0
		c-0.4,0.5-0.8,1-1.2,1.6c2.4,1.7,5,3.4,7.3,5.2c0.1,0.1,0.1,1,0.1,1.1c0.1,0.8,0.1,1.7,0.2,2.5c0.1,1.6,0.1,3.2,0.1,4.9
		c0,2.2,0.1,4.3,0,6.5c-0.1,3.7-0.2,7.5-0.3,11.2c-0.1,6.4,0.1,12.8,1.2,19.1c0.6,3.5,1.5,6.8,2.5,10.2c1.7,5.6,4.6,11.1,8.1,15.8
		c0-0.1-0.1-0.3-0.3-0.6c5.7,8,13.9,14,23.3,16.7c4.9,1.4,10.1,2,15.3,1.8c2.3-0.1,4.6-0.2,6.8-0.4c2.5-0.3,5.1-0.9,7.6-1.6
		c5.9-1.7,11.3-4.2,16.5-7.3c6.1,4.7,13,7.8,20.6,9.1c10.1,1.6,20.4-0.2,29.8-3.8c2.8-1.1,5.6-2.3,8.3-3.7c0.9-0.5,1.8-1.1,2.7-1.5
		c0.7,0.8,1.7,1.4,2.6,2c2.2,1.5,4.5,2.9,7,4c2.4,1,4.9,1.8,7.4,2.3s5,1.1,7.6,1.3c5.2,0.4,10.3,0.1,15.4-0.9
		c4.5-0.9,8.7-2.5,12.9-4.2C473.4,926.5,477.6,923.7,481.6,920.8C481.7,920.8,481.7,920.8,481.6,920.8z M409.5,917.7
		c-2.7,1.8-5.9,3.1-9,4.4c0.1,0.1,0.5,0,0.8-0.1c-0.3,0.1-0.6,0.2-0.9,0.4c0.1,0,0.1,0,0.2-0.1l-0.2-0.2c-2.2,0.5-4.4,1.5-6.6,2.1
		c-2.2,0.6-4.5,1-6.8,1.2c-4.9,0.4-10.1,0-14.8-1.3c-2.2-0.6-4.4-1.4-6.4-2.5c-2-1-3.7-2.4-5.4-3.9c-3.4-2.8-6.3-6.2-8.7-9.9
		c-2.5-4-4.3-8.2-5.7-12.7c-1.4-4.7-1.8-9.5-2.1-14.4c-0.2-2.5-0.6-5-0.5-7.4c0-2.4,0.1-4.7,0.2-7.1c0.2-5,0.3-10,0-14.9
		c-0.1-2.6-0.1-5.3-0.5-7.9c-0.4-2.5-0.8-5.2-2.4-7.2c-1.4-1.8-3.5-2.8-5.8-2.8c-2.7,0.1-4.8,1.8-6.3,3.9l0,0
		c-0.4,0.5-0.8,1-1.2,1.6c1.6,1.1,3.1,2.2,4.7,3.3c0.6,0.4,1.2,0.8,1.8,1.2c0.2,0.1,0.8,0.4,0.9,0.6c0.3,0.5,0.3,1.8,0.3,2.4
		c0.2,1.9,0.2,3.9,0.2,5.8c0,4,0,8-0.2,12c-0.1,4-0.5,8-0.4,12c0.1,2.1,0.4,4.2,0.5,6.4c0.1,1,0.2,2.1,0.3,3.1
		c0.1,0.6,0.4,1.6,0.2,2.1c-2.8,1.9-5.7,3.5-8.9,4.7c-0.9,0.3-1.8,0.6-2.8,0.8c-1.6,0.4-4.2,0.7-5.7-0.3c0,0.1,0.1,0.1,0.2,0.2
		c-0.3-0.2-0.5-0.4-0.8-0.6l0,0c-2-2.2-3-5.7-3.6-8.6c-0.5-2.7-0.8-5.4-0.9-8.1c-0.1-2.4,0.3-4.8,0.4-7.3
		c0.4-10.7,0.9-21.6-0.9-32.3c-0.7-4.3-1.5-8.4-3.3-12.4l0,0c1.8-3.4,5-6.4,8-8.8c1.9-1.5,3.9-2.9,6.1-4c2.7-1.4,6-2.7,9-2.9
		c3.7-0.2,7.4,0,11,1c2.2,0.6,4.3,1.4,6.3,2.5c0.9,0.5,1.9,1,2.7,1.8c0.8,0.7,1.5,1.5,2.2,2.2c3.1,3,5.6,6.5,7.5,10.4
		c2.2,4.4,3.5,9.3,4.1,14.2c0.7,4.9,0.3,9.7,0.2,14.6c-0.1,2.7,0.1,5.4,0,8.1s-0.2,5.4-0.2,8.1c-0.1,5.4,0.3,11,1.7,16.3
		c0,0,0.1-0.1,0.1-0.2c0.6,3.1,1.9,6.5,3.8,9c1,1.3,2.2,2.6,3.6,3.5c1.5,1,3.2,1.3,4.9,1.7c1.7,0.4,3.1,0.6,4.8,0.4
		c1.9-0.2,3.7-0.6,5.5-1.1c2.8-0.9,5.7-2.2,8.1-3.8c0.4,1.2,0.7,2.4,1.1,3.5c0.3,0.8,0.6,1.5,0.9,2.2c0.2,0.4,0.6,1.1,0.6,1.4
		c-3.8,2.1-7.8,3.8-12.2,4.5c-2.9,0.5-5.8,0.7-8.6,0.6c-2.6,0-5.2-0.8-7.5-2c-3.5-1.8-6.2-4.6-8.4-7.8c-3.3-4.8-4.8-10.3-5.5-16
		c-0.4-2.9-0.6-5.9-0.6-8.8c0-1.3-0.2-2.7,0-3.9c0.2-1.3,0.3-2.5,0.4-3.8c0.3-5.5,0.5-11,0.4-16.5c-0.1-3.2-0.3-6.3-0.7-9.5
		c-0.8-5.3-2.1-11.2-5.2-15.6c-1.3-1.8-2.8-3.1-4.5-4.5c-2.2-1.8-4.5-3.1-7.2-4c-5.9-1.8-12.5-1-17.7,2.5c0.1,0,0.2,0,0.3,0
		c-4.1,2.6-7.1,6.3-9.9,10.2c0.1,0,0.1,0.1,0.2,0.1l0,0c2.1,1.5,4.3,2.9,6.3,4.4c0.7-0.9,1.5-1.6,2.2-2.5c0.6-0.7,1.2-1.4,1.9-2.1
		c1.7-1.7,3.6-3.1,5.8-3.9c4.9-1.7,10.9-0.3,14.4,3.6c3.6,3.9,4.6,9.2,4.9,14.4c0.1,2.2,0.5,4.5,0.5,6.7c0,2.7-0.1,5.5-0.2,8.2
		c-0.2,6.1-0.5,12.3,0,18.4c0.1,0,0.1-0.2,0.1-0.3c0.2,6.7,1.1,13.4,3.4,19.7c1.1,3,2.2,5.9,3.9,8.6c1.1,1.8,2.4,3.5,4,4.9
		c6.4,6.1,14.6,8.3,23.3,8c3.7-0.1,7.4-0.7,10.8-2c1.6-0.6,3-1.4,4.6-2c1.4-0.5,2.9-1.2,4.2-1.9c-0.1,0.1,2.4,3.7,2.7,4
		C408.5,916.4,409,917.1,409.5,917.7L409.5,917.7z M464.4,903.2c-1.6,1-3.2,2.1-5,2.8c-1.9,0.7-3.9,1.2-5.7,2
		c-1.8,0.7-4,0.9-5.9,1.1c-2,0.2-4,0.4-6,0.3c0,0.1,0.2,0.2,0.3,0.3c-0.1,0-0.3,0-0.4,0c0,0,0,0,0.1,0v-0.3
		c-0.3-0.1-0.6-0.2-0.9-0.2l0,0c-1,0.3-3-0.3-4-0.6c-1.4-0.4-2.8-1.2-4-2s-2.4-1.7-3.4-2.7c-0.5-0.5-1-1-1.4-1.5
		c-0.4-0.6-0.6-1.3-0.9-1.9c-1.5-2.7-2.9-5.4-3.9-8.2c-0.5-1.6-1.1-3.3-1.3-4.9c-0.2-1.6-0.2-3.2-0.4-4.8c-0.1-0.8-0.4-1.5-0.5-2.2
		c0-0.8,0-1.5,0-2.3c0-1.6,0-3.2-0.2-4.8c-0.1-1.5-0.4-3-0.3-4.6c0.1-1.6,0.1-3.2,0.1-4.8c0-0.8,0-1.7,0.1-2.5
		c0-0.8,0.3-1.4,0.4-2.2c0.2-1.6,0.2-3.2,0.2-4.8c0-3.3-0.3-6.5-0.4-9.8c0-1.1,0-2.2,0-3.3c-0.1-1.7-0.8-3.3-1.1-5s-0.8-3.4-1.5-4.9
		c-0.7-1.6-1.7-3-2.7-4.5l0,0c-0.7-1.2-1.6-2.4-2.6-3.4c-1.1-1.2-2.4-2-3.6-3.1c-0.4-0.4-0.7-0.8-1.1-1.1c-0.6-0.4-1.3-0.8-2-1.1
		c-1.3-0.6-2.7-1-4.2-1.3c-3.2-0.6-6.5-0.5-9.7,0c-2.4,0.3-4.4,1.4-6.4,2.7c-2.8,1.8-5.2,4.2-7.2,6.9c0.1,0,0.1,0,0.2,0
		c-0.9,1.1-1.8,2.3-2.6,3.4c0.1,0,0.1,0.1,0.2,0.1l0,0c1.2,0.8,2.5,1.7,3.7,2.5c0.5,0.4,0.8,0.7,1.2,1.2c0.5,0.5,1.1,0.9,1.6,1.3
		c2.9-3.8,6.1-8.9,11.3-9.5c1.3-0.1,2.6,0,3.9,0c0.7,0,1.2-0.1,1.8,0.1s1.2,0.4,1.8,0.6c2.5,1,5,2.6,6.6,4.8v-0.1
		c1,1.3,1.7,3.1,2.3,4.6c0.3,0.9,0.6,1.7,0.8,2.6c0.2,0.8,0.2,1.5,0.3,2.3c0.4,3.5,0.8,7,0.9,10.6c0.1,1.7,0,3.5-0.2,5.2
		c-0.1,1-0.2,1.9-0.2,2.9c0,0.9,0.1,1.7,0.1,2.6c-0.2,3.7-0.3,7.3-0.1,11c0.1,0,0.1-0.1,0.1-0.1c0,3.1,0.1,6.1,0.3,9.2
		c0.1,1.5,0,2.9,0.2,4.4c0.2,1.6,0.5,3.1,1,4.7c0.8,3,1.8,6,2.9,8.9c0.5,1.4,1.1,2.6,2,3.8c0.7,0.9,1.2,2,1.8,2.9
		c1.6,2.4,3.7,4,6,5.7v-0.1c1.3,1.1,2.9,2.1,4.5,2.8c1.4,0.7,3.1,1,4.4,1.9c1.4,0.9,3.5,1.2,5.1,1.4c1.9,0.2,3.8,0.2,5.7,0
		c1.8-0.1,3.6-0.4,5.4-0.6c1.6-0.2,3.2-0.3,4.6-0.9c0.8-0.3,1.4-0.7,2.2-0.9c0.9-0.2,1.7-0.5,2.5-0.9c1.8-0.7,3.4-1.5,5-2.6
		c0.7-0.5,1.4-1.1,2.2-1.5c0.9-0.5,1.8-1,2.6-1.6c0.5-0.3,1-0.7,1.4-1c0.2-0.2,0.8-0.4,0.9-0.7c-0.3-0.4-0.5-0.9-0.8-1.3
		c-0.5-0.8-0.7-1.4-1-2.2c-0.2-0.4-2.2-3.7-2.1-3.8C467.7,900.9,466.1,902.2,464.4,903.2C464,903.5,464.5,903.2,464.4,903.2z"/>
	<path class="typeface" d="M244.5,966.5c-0.2-0.5,0.2-0.9,0.7-0.9h4.5c0.3,0,0.6,0.3,0.7,0.5l3.3,13.2h0.2l6-13.7c0.1-0.2,0.3-0.4,0.7-0.4h0.7
		c0.3,0,0.6,0.2,0.7,0.4l6,13.7h0.2l3.3-13.2c0.1-0.3,0.4-0.5,0.7-0.5h4.5c0.5,0,0.9,0.4,0.7,0.9l-7.3,26.1
		c-0.1,0.3-0.4,0.5-0.7,0.5h-0.6c-0.3,0-0.5-0.2-0.7-0.4l-7.1-15.9h-0.1l-7.1,15.9c-0.1,0.2-0.4,0.4-0.7,0.4h-0.6
		c-0.3,0-0.6-0.2-0.7-0.5L244.5,966.5z M288.2,966.3c0-0.4,0.3-0.7,0.7-0.7H305c0.4,0,0.7,0.3,0.7,0.7v4.2c0,0.4-0.3,0.7-0.7,0.7
		h-10.8v4.8h8.9c0.4,0,0.7,0.3,0.7,0.7v4.2c0,0.4-0.3,0.7-0.7,0.7h-8.9v5.2H305c0.4,0,0.7,0.3,0.7,0.7v4.2c0,0.4-0.3,0.7-0.7,0.7
		h-16.1c-0.4,0-0.7-0.3-0.7-0.7V966.3z M321.7,971.3h-5.6c-0.4,0-0.7-0.3-0.7-0.7v-4.2c0-0.4,0.3-0.7,0.7-0.7h17.3
		c0.4,0,0.7,0.3,0.7,0.7v4.2c0,0.4-0.3,0.7-0.7,0.7h-5.5v20.8c0,0.4-0.3,0.7-0.7,0.7h-4.7c-0.4,0-0.7-0.3-0.7-0.7L321.7,971.3
		L321.7,971.3z M344.3,966.3c0-0.4,0.3-0.7,0.7-0.7h4.8c0.4,0,0.7,0.3,0.7,0.7V982c0,2.7,2,4.9,4.8,4.9s4.9-2.2,4.9-4.9v-15.7
		c0-0.4,0.3-0.7,0.7-0.7h4.8c0.4,0,0.7,0.3,0.7,0.7v16.1c0,5.9-5,10.8-11.1,10.8s-11-4.9-11-10.8L344.3,966.3L344.3,966.3z
		 M381.8,965.8c0-0.3,0.4-0.6,0.7-0.6h0.6c0.2,0,0.5,0.2,0.7,0.4l9,16.8h0.1l9-16.8c0.1-0.2,0.5-0.4,0.7-0.4h0.6
		c0.3,0,0.7,0.3,0.7,0.6l4.4,26.1c0.1,0.5-0.3,0.9-0.7,0.9H403c-0.3,0-0.7-0.3-0.7-0.6l-1.7-12h-0.1l-6.5,12.6
		c-0.1,0.2-0.5,0.4-0.7,0.4h-0.7c-0.2,0-0.5-0.2-0.7-0.4l-6.6-12.6h-0.1l-1.7,12c0,0.3-0.3,0.6-0.7,0.6h-4.6c-0.5,0-0.8-0.3-0.7-0.9
		L381.8,965.8z M420,966.5c0-0.5,0.4-0.9,0.9-0.9h4.5c0.5,0,0.9,0.4,0.9,0.9v10.2l8.6-10.8c0.2-0.2,0.5-0.4,0.7-0.4h4.9
		c0.7,0,1.1,0.9,0.7,1.4l-9.1,11.4l9.9,12.9c0.4,0.6,0,1.4-0.7,1.4h-5.4c-0.3,0-0.6-0.2-0.7-0.3l-9-12.2v11.6c0,0.5-0.4,0.9-0.9,0.9
		h-4.4c-0.5,0-0.9-0.4-0.9-0.9V966.5z M451.2,991.8l12.2-26.2c0.1-0.2,0.4-0.4,0.7-0.4h0.4c0.3,0,0.5,0.2,0.7,0.4l12.2,26.2
		c0.2,0.5-0.1,1-0.7,1h-4.3c-0.7,0-1-0.2-1.4-1l-1.4-3.1h-10.7l-1.4,3.1c-0.2,0.5-0.6,0.9-1.4,0.9h-4.3
		C451.3,992.8,450.9,992.3,451.2,991.8z M467.2,983.5l-3-6.4l0,0l-2.9,6.4H467.2z"/>
</g>
</svg>
