<?xml version="1.0" encoding="utf-8"?>
<svg xmlns="http://www.w3.org/2000/svg" xmlns:xlink="http://www.w3.org/1999/xlink" viewBox="0 0 200 115">
<g class="logo-path-group logo-path-group-3">
	<path class="logo-path logo-path-3" d="M103.6,21.8c6.1-7.9,14.1-16.1,27-15.3c11.3,0.7,19,6.3,23.6,17.7c5.9,14.6,2.2,30.4,2.5,40.3
		c0.2,7.1,1.6,15,6.8,17.4c3.6,1.7,10.1-0.9,12.2-2c2.1-1.2,4-2.6,6.4-4.2"/>
	<path class="logo-path logo-path-2" d="M114.2,28.9c3-4.1,8.7-10.6,16.5-9.2c7.8,1.5,11.2,6.3,12.9,14.2c2,9.4-0.8,21.6,1.5,36
		c1.7,10.3,4.3,19.5,12.6,23.3c5.6,2.6,13,2.2,19.4,0c4.6-1.6,9.3-4.8,11.7-6.3"/>
	<path class="logo-path logo-path-1" d="M124.8,36.4c2.2-2.9,4.2-4.3,5.4-2.1s1.7,4.7,1.6,12.3c-0.1,7.5-1.2,20.2,0.4,28c1.6,7.8,3.3,19,16.3,28.4
		c8.2,5.9,20.8,5.8,31.1,3c6-1.7,12.4-5.7,15.8-8.1"/>
</g>
<g class="logo-path-group logo-path-group-2">
	<path class="logo-path logo-path-3" d="M53.6,21.8c6.1-7.9,14.1-16.1,27-15.3c11.3,0.7,19,6.3,23.6,17.7c5.9,14.6,2.2,30.4,2.5,40.3
		c0.2,7.1,1.6,15,6.8,17.4c3.6,1.7,10.1-0.9,12.2-2c2.1-1.2,4-2.6,6.4-4.2"/>
	<path class="logo-path logo-path-2" d="M64.3,28.9c3-4.1,8.7-10.6,16.5-9.2S92,26.1,93.7,34c2,9.4-0.8,21.6,1.5,36c1.7,10.3,4.3,19.5,12.6,23.3
		c5.6,2.6,13,2.2,19.4,0c4.6-1.6,9.3-4.8,11.7-6.3"/>
	<path class="logo-path logo-path-1" d="M74.8,36.4c2.2-2.9,4.2-4.3,5.4-2.1s1.7,4.7,1.6,12.3c-0.1,7.5-1.2,20.2,0.4,28s3.3,19,16.3,28.4
		c8.2,5.9,20.8,5.8,31.1,3c6-1.7,12.4-5.7,15.8-8.1"/>
</g>
<g class="logo-path-group logo-path-group-1">
	<path class="logo-path logo-path-3" d="M4.5,21.8c6.1-7.9,14.1-16.1,27-15.3c11.3,0.7,19,6.3,23.6,17.7c5.9,14.6,2.2,30.4,2.5,40.3
		c0.2,7.1,1.6,15,6.8,17.4c3.6,1.7,10.1-0.9,12.2-2c2.1-1.2,4-2.6,6.4-4.2"/>
	<path class="logo-path logo-path-2" d="M15.1,28.9c3-4.1,8.7-10.6,16.5-9.2S42.9,26.1,44.5,34c2,9.4-0.8,21.6,1.5,36c1.7,10.3,4.3,19.5,12.6,23.3
		c5.6,2.6,13,2.2,19.4,0c4.6-1.6,9.3-4.8,11.7-6.3"/>
	<path class="logo-path logo-path-1" d="M25.7,36.4c2.2-2.9,4.2-4.3,5.4-2.1s1.7,4.7,1.6,12.3c-0.1,7.5-1.2,20.2,0.4,28s3.3,19,16.3,28.4
		c8.2,5.9,20.8,5.8,31.1,3c6-1.7,12.4-5.7,15.8-8.1"/>
</g>
</svg>
